<svg width="30" height="30" viewBox="0 0 30 30" fill="none" xmlns="http://www.w3.org/2000/svg">
<path d="M10.63 20C11.3136 20 12.0245 19.3984 12.38 19.125C14.13 17.9219 14.6495 17.4844 15.005 17.2109V20.875C15.005 21.3672 14.5948 21.75 14.13 21.75H7.13C6.63781 21.75 6.255 21.3672 6.255 20.875V17.2109C6.58312 17.4844 7.13 17.9219 8.88 19.125C9.20812 19.3984 9.91906 20 10.63 20ZM14.13 14.75C14.5948 14.75 15.005 15.1602 15.005 15.625V16.1719C14.2941 16.6914 14.3761 16.6914 11.8331 18.5234C11.587 18.6055 11.0675 19.125 10.63 19.125C10.1925 19.125 9.64562 18.6055 9.39953 18.4414C6.85656 16.6094 6.93859 16.6094 6.255 16.0625V15.625C6.255 15.1602 6.63781 14.75 7.13 14.75H14.13ZM21.13 12.125C21.5948 12.125 22.005 12.5352 22.005 13V18.25C22.005 18.7422 21.5948 19.125 21.13 19.125H15.88V15.4609H15.8527C15.7706 14.5859 15.0323 13.875 14.13 13.875H11.505V13C11.505 12.5352 11.8878 12.125 12.38 12.125H21.13ZM20.255 15.625V13.875H18.505V15.625H20.255ZM10.63 13V13.875H8.005V8.625C8.005 8.16016 8.38781 7.75 8.88 7.75H17.63C18.0948 7.75 18.505 8.16016 18.505 8.625V11.25H12.38C11.3956 11.25 10.63 12.043 10.63 13Z" fill="#ffffff"/>
</svg>
