<svg width="32" height="32" viewBox="0 0 32 32" fill="none" xmlns="http://www.w3.org/2000/svg">
<g id="instagram (1) 1" clip-path="url(#clip0_31_462)">
<g id="Clip path group">
<mask id="mask0_31_462" style="mask-type:luminance" maskUnits="userSpaceOnUse" x="0" y="0" width="32" height="32">
<g id="b">
<path id="Vector" d="M16 32C24.8366 32 32 24.8366 32 16C32 7.16344 24.8366 0 16 0C7.16344 0 0 7.16344 0 16C0 24.8366 7.16344 32 16 32Z" fill="white"/>
</g>
</mask>
<g mask="url(#mask0_31_462)">
<g id="Group">
<path id="Vector_2" d="M6.875 64.75C25.8598 64.75 41.25 49.3598 41.25 30.375C41.25 11.3902 25.8598 -4 6.875 -4C-12.1098 -4 -27.5 11.3902 -27.5 30.375C-27.5 49.3598 -12.1098 64.75 6.875 64.75Z" fill="url(#paint0_radial_31_462)"/>
</g>
</g>
</g>
<path id="Vector_3" d="M20 13C20.5523 13 21 12.5523 21 12C21 11.4477 20.5523 11 20 11C19.4477 11 19 11.4477 19 12C19 12.5523 19.4477 13 20 13Z" fill="white"/>
<path id="Vector_4" d="M15.9232 12.3005C15.132 12.3005 14.3587 12.5351 13.7009 12.9746C13.0431 13.4141 12.5304 14.0389 12.2277 14.7698C11.9249 15.5007 11.8457 16.3049 12 17.0809C12.1544 17.8568 12.5353 18.5695 13.0947 19.1289C13.6542 19.6883 14.3669 20.0693 15.1428 20.2236C15.9187 20.378 16.723 20.2988 17.4539 19.996C18.1848 19.6933 18.8095 19.1806 19.249 18.5228C19.6886 17.865 19.9232 17.0916 19.9232 16.3005C19.9232 15.2396 19.5017 14.2222 18.7516 13.4721C18.0015 12.7219 16.984 12.3005 15.9232 12.3005ZM15.9232 18.3005C15.5276 18.3005 15.1409 18.1832 14.812 17.9634C14.4831 17.7437 14.2268 17.4313 14.0754 17.0659C13.924 16.7004 13.8844 16.2983 13.9616 15.9103C14.0388 15.5223 14.2293 15.166 14.509 14.8863C14.7887 14.6066 15.145 14.4161 15.533 14.3389C15.921 14.2618 16.3231 14.3014 16.6885 14.4527C17.054 14.6041 17.3663 14.8605 17.5861 15.1894C17.8059 15.5183 17.9232 15.9049 17.9232 16.3005C17.9232 16.8309 17.7125 17.3396 17.3374 17.7147C16.9623 18.0898 16.4536 18.3005 15.9232 18.3005Z" fill="white"/>
<path id="Vector_5" d="M21 8.14819H11C9.34315 8.14819 8 9.49134 8 11.1482V21.1482C8 22.805 9.34315 24.1482 11 24.1482H21C22.6569 24.1482 24 22.805 24 21.1482V11.1482C24 9.49134 22.6569 8.14819 21 8.14819Z" stroke="white" stroke-width="2" stroke-miterlimit="10"/>
</g>
<defs>
<radialGradient id="paint0_radial_31_462" cx="0" cy="0" r="1" gradientUnits="userSpaceOnUse" gradientTransform="translate(6.875 30.375) scale(34.375)">
<stop stop-color="#FFD676"/>
<stop offset="0.25" stop-color="#F2A454"/>
<stop offset="0.38" stop-color="#F05C3C"/>
<stop offset="0.7" stop-color="#C22F86"/>
<stop offset="0.96" stop-color="#6666AD"/>
<stop offset="0.99" stop-color="#5C6CB2"/>
</radialGradient>
<clipPath id="clip0_31_462">
<rect width="32" height="32" fill="white"/>
</clipPath>
</defs>
</svg>
