<svg width="30" height="30" viewBox="0 0 30 30" fill="none" xmlns="http://www.w3.org/2000/svg">
<path d="M14.7031 21.4766C10.7109 15.7344 10 15.1328 10 13C10 10.1016 12.3242 7.75 15.25 7.75C18.1484 7.75 20.5 10.1016 20.5 13C20.5 15.1328 19.7617 15.7344 15.7695 21.4766C15.5234 21.8594 14.9492 21.8594 14.7031 21.4766ZM15.25 15.1875C16.4531 15.1875 17.4375 14.2305 17.4375 13C17.4375 11.7969 16.4531 10.8125 15.25 10.8125C14.0195 10.8125 13.0625 11.7969 13.0625 13C13.0625 14.2305 14.0195 15.1875 15.25 15.1875Z" fill="#ffffff"/>
</svg>
