<svg width="120" height="120" viewBox="0 0 120 120" fill="none" xmlns="http://www.w3.org/2000/svg">
<g id="logo-black">
<path id="Vector" d="M44.5295 68.9097C41.6763 66.6556 38.8922 64.3886 36.5393 61.6441C36.1984 61.2465 36.0953 60.8735 36.1323 60.3299C36.3549 57.0552 37.0632 53.857 37.5919 50.6315C37.8676 48.949 38.6099 47.4674 39.9016 46.3286C40.4811 45.8177 40.7231 45.3346 40.7112 44.4988C40.6804 42.3355 41.563 40.4807 43.1357 38.9796C44.4529 37.7224 46.0233 37.0091 47.8422 36.8607C48.3648 36.818 48.7941 36.6299 49.1977 36.2694C50.9159 34.7346 52.9456 33.7456 55.118 33.0409C55.5866 32.8889 55.7753 32.6728 55.7509 32.1732C55.7118 31.3745 55.7283 30.5723 55.7458 29.7721C55.7532 29.4323 55.6727 29.1875 55.3743 28.9818C54.7963 28.5832 54.613 27.9659 54.5746 27.3007C54.5532 26.9309 54.5765 26.5587 54.5635 26.1881C54.5444 25.643 54.6972 25.2249 55.294 25.0923C55.623 25.0192 55.6263 24.7602 55.6254 24.4952C55.6224 23.6751 55.6353 22.8549 55.6233 22.0349C55.6033 20.6692 56.1597 19.5859 57.3132 18.8895C59.5931 17.5131 61.996 17.3882 64.3281 18.6575C65.6849 19.3961 66.6447 20.552 66.4914 22.3022C66.427 23.0385 66.4879 23.7853 66.4798 24.5273C66.4768 24.8037 66.5143 25.0076 66.8343 25.1029C67.2056 25.2136 67.4115 25.5245 67.4424 25.8935C67.546 27.129 67.6675 28.3818 66.4293 29.2113C66.2389 29.3388 66.2265 29.533 66.2262 29.7305C66.2247 30.6287 66.2325 31.5268 66.2231 32.4249C66.2197 32.751 66.3588 32.9219 66.6707 33.0079C69.0833 33.6732 71.2107 34.8738 73.0981 36.5009C73.5026 36.8495 73.9778 36.796 74.4247 36.8531C78.4216 37.3638 81.3893 40.6916 81.3538 44.7114C81.348 45.3732 81.5184 45.8344 82.0175 46.2814C83.6593 47.7517 84.3023 49.7154 84.6391 51.8215C84.9617 53.8392 85.4102 55.8367 85.6352 57.8701C85.7423 58.8383 85.8161 59.8103 85.8953 60.7814C85.9313 61.2227 85.6154 61.5005 85.3585 61.7831C84.3991 62.8383 83.3839 63.8407 82.3253 64.7949C80.513 66.4285 78.6888 68.058 76.7102 69.4833C75.3148 70.4885 74.5983 72.0071 73.5229 73.2487C73.183 73.641 72.8545 73.8213 72.3377 73.832C70.7988 73.8637 69.2532 73.7075 67.7211 73.9684C67.462 74.0125 67.2445 73.894 67.0933 73.7177C66.2966 72.7886 65.2305 72.6999 64.1159 72.7046C61.6946 72.7148 59.2732 72.7195 56.8521 72.6973C56.1109 72.6905 55.6112 73.1253 55.0975 73.5317C54.7212 73.8295 54.3627 73.9145 53.8729 73.8865C52.5292 73.8098 51.1796 73.8167 49.8326 73.826C49.217 73.8302 48.7826 73.6533 48.4227 73.106C47.8232 72.1942 47.1865 71.2928 46.456 70.4861C45.9144 69.888 45.1992 69.4472 44.5295 68.9097ZM78.6299 46.0617C79.1151 45.8275 79.2136 45.0825 78.799 44.6735C78.3229 44.204 78.2631 43.5611 78.4868 43.0673C78.7648 42.4538 78.6607 41.9685 78.3906 41.4652C76.8992 38.6865 72.9713 37.488 70.2095 39.0014C69.6834 39.2897 69.2121 39.3003 68.6559 39.2396C66.7832 39.0349 64.9515 39.1611 63.2569 40.1046C62.089 40.7548 61.5922 41.8278 61.885 43.0788C62.0747 42.9529 61.9867 42.6054 62.3176 42.5645C62.6098 43.6923 62.5297 44.9547 63.508 45.8446C62.8288 45.6822 62.6703 44.9952 62.2194 44.6205C61.7958 45.101 61.7822 45.6845 62.1603 46.1102C62.2762 46.2406 62.4182 46.3534 62.5107 46.4982C63.4942 48.0363 65.2894 48.0008 66.537 47.8217C67.0093 47.754 67.2025 47.4286 67.1043 46.9711C67.0496 46.7164 67.1429 46.5323 67.2348 46.311C67.4485 45.7963 67.9248 45.7193 68.3544 45.5522C69.149 45.2432 69.1994 45.2473 69.5571 46.0116C69.7445 46.412 70.0239 46.4942 70.3553 46.2958C70.8445 46.0028 71.1821 45.5297 71.2477 44.9792C71.3047 44.5012 70.8607 44.2258 70.4888 44.0273C69.6114 43.5592 68.7082 43.1394 67.8156 42.6999C67.6526 42.6197 67.4277 42.6287 67.3363 42.3097C68.5369 42.3394 69.6958 42.4086 70.9261 42.6495C70.3416 41.4701 69.4672 40.688 68.4754 39.9321C70.0142 39.6333 73.5085 41.5874 74.2947 43.106C74.08 43.151 73.8146 42.8727 73.6568 43.1578C73.5103 43.4225 73.6223 43.6891 73.7965 43.9197C74.0787 44.2932 74.343 44.6814 74.6949 44.9974C74.8998 45.1814 75.1144 45.4297 75.4024 45.232C75.6756 45.0445 75.8741 44.7635 75.7988 44.3878C75.5331 43.0616 75.034 41.8507 74.0663 40.8684C73.9451 40.7454 73.7444 40.6544 73.7735 40.4033C74.1384 40.4392 74.3663 40.6709 74.6218 40.8338C75.9565 41.6845 77.3108 42.5132 78.0695 43.9993C78.2364 44.3262 78.3653 44.6475 78.2694 45.0036C78.1585 45.415 78.3123 45.7257 78.6299 46.0617ZM55.7806 47.8859C56.4259 47.9136 57.0666 47.8888 57.7054 47.7758C59.2365 47.5049 60.2683 46.3673 60.2257 44.9783C60.2055 44.3172 60.0498 44.206 59.3681 44.4257C59.5016 43.7346 59.5335 43.0518 59.7927 42.4214C60.048 42.4832 59.9756 42.7643 60.1906 42.7981C60.2546 41.5556 59.8469 40.7286 58.7967 40.1406C56.9622 39.1134 54.9668 39.03 52.9405 39.27C52.633 39.3064 52.3865 39.325 52.1167 39.1545C51.341 38.6642 50.4724 38.41 49.5686 38.3724C44.736 38.1715 42.4799 42.0277 43.0437 45.8651C43.0745 46.0748 43.083 46.3015 43.4263 46.3641C43.7045 45.9394 44.0041 45.4752 43.945 44.9537C43.909 44.6359 43.9423 44.3919 44.0693 44.127C44.9349 42.3217 46.4828 41.2676 48.1877 40.3874C48.2015 40.3803 48.2422 40.4253 48.2711 40.4466C48.2601 40.4843 48.2572 40.5253 48.2373 40.5549C48.2051 40.6031 48.1656 40.6482 48.1225 40.6872C46.6736 42.0002 46.4031 43.7723 46.2186 45.577C46.2024 45.7359 46.2163 45.9017 46.3948 45.9721C46.551 46.0337 46.6576 45.9245 46.7449 45.8207C47.0088 45.5071 47.2704 45.1911 47.5211 44.8669C47.6874 44.652 47.6819 44.4423 47.451 44.2649C47.1828 44.2666 46.989 44.6166 46.6916 44.4205C47.0373 42.6145 51.9512 39.3926 53.5878 39.9435C52.594 40.7236 51.519 41.4032 51.0093 42.7434C52.2742 42.4372 53.425 42.2153 54.6241 42.3819C53.5479 43.0956 52.2937 43.4706 51.2893 44.2142C51.3185 44.4535 51.4366 44.5408 51.5571 44.5931C52.4157 44.9657 53.2036 45.4909 54.1035 45.7728C54.9431 46.0358 55.042 46.1906 54.7369 47.0224C54.5655 47.4897 54.7388 47.6812 55.162 47.77C55.3338 47.8061 55.5058 47.8409 55.7806 47.8859ZM49.1942 69.9322C49.4884 70.4377 49.8545 70.7693 50.453 71.0053C51.3538 71.3605 52.2539 71.746 53.1417 72.1472C53.2595 72.2004 53.4054 72.3003 53.5995 72.1363C52.8506 71.7127 52.1362 71.321 51.3688 71.037C51.0568 70.9216 50.8021 70.7633 50.7336 70.4169C50.5739 69.6104 50.1027 68.9579 49.7108 68.2613C49.485 67.86 49.0698 67.6015 48.8366 67.0256C49.6167 67.2575 50.2615 66.4773 50.9472 67.0944C51.234 66.542 51.3581 66.5413 51.7642 66.9815C51.9464 67.1791 52.1902 67.319 52.4006 67.4918C52.7342 67.7657 52.9529 67.6722 53.1104 67.27C52.3389 66.5362 51.4394 66.0048 50.5334 65.4656C49.6985 64.9688 48.9167 64.7574 48.0655 65.369C47.9728 65.4357 47.8471 65.4544 47.7451 65.5105C47.3113 65.7489 47.054 65.6187 46.9242 65.1499C46.6301 64.0874 46.067 63.144 45.5912 62.1614C45.1934 61.3399 44.8246 60.5044 44.427 59.6405C44.9394 59.4824 44.8856 59.2009 44.6921 58.8577C43.7356 57.1604 42.3147 55.9929 40.5607 55.1968C40.3602 55.1059 40.0868 55.1178 39.9988 54.8501C40.0515 54.6238 40.2429 54.5417 40.3943 54.4272C40.9881 53.9787 41.5435 53.4866 42.0418 52.9352C42.6669 52.2435 43.1323 51.4736 43.2292 50.5121C43.3638 49.1772 42.4348 48.3384 41.8597 47.3297C41.7466 47.3682 41.6829 47.3737 41.6407 47.4067C40.5403 48.2674 40.1736 49.5054 39.9088 50.7936C39.8877 50.8967 39.9434 50.9838 40.0438 51.0275C40.1909 51.0916 40.2943 51.0427 40.3961 50.9182C40.6563 50.6 40.9905 50.3806 41.3603 50.2172C41.7033 50.7171 41.7033 50.7171 41.4228 51.1534C41.0958 51.6622 40.7301 52.1507 40.4494 52.6839C39.7616 53.9902 39.4681 55.3332 40.0644 56.7852C40.6576 58.2297 41.5043 59.5053 42.4827 60.7036C43.0042 61.3424 43.5497 61.9614 44.0844 62.5894C42.616 62.3584 41.398 61.5539 40.1094 60.9728C39.9355 61.237 40.0644 61.3842 40.1506 61.5292C40.5803 62.2519 41.066 62.9312 41.6215 63.5673C43.2263 65.405 45.2014 66.8149 47.0743 68.3438C47.2377 68.4771 47.4012 68.5911 47.5806 68.3919C47.8312 68.1135 48.0002 68.3032 48.1448 68.4923C48.4884 68.9416 48.8148 69.404 49.1942 69.9322ZM72.3393 65.0538C71.1459 65.4763 70.1817 66.2706 69.1794 67.003C69.013 67.1246 68.8659 67.2559 69.0101 67.486C69.1211 67.663 69.2928 67.753 69.4431 67.5854C69.9295 67.0428 70.6001 66.8605 71.2342 66.592C71.5099 66.4752 71.7873 66.4042 72.0749 66.3597C72.2821 66.3276 72.5707 66.4112 72.5312 66.6023C72.4345 67.0695 72.8277 66.9946 73.0745 67.1268C72.2949 68.0925 71.645 69.0887 71.3472 70.2571C71.224 70.7408 70.9827 70.9497 70.5114 71.0842C69.7376 71.3052 69.0126 71.663 68.3856 72.1772C68.5143 72.3954 68.6634 72.3884 68.7891 72.3495C69.4542 72.1435 70.1266 71.9533 70.7748 71.7019C71.674 71.3531 72.3669 70.7613 72.8264 69.8852C73.0599 69.4399 73.3951 69.0459 73.7023 68.6423C73.8247 68.4815 73.9372 68.2705 74.1696 68.2921C74.4317 68.3997 74.2195 68.7446 74.4904 68.8227C74.6944 68.7827 74.8302 68.6363 74.9783 68.5122C76.1154 67.5593 77.2718 66.6281 78.3816 65.6444C79.5963 64.5678 80.7326 63.4117 81.5728 62.0021C81.6892 61.8068 81.8999 61.5962 81.6677 61.3797C81.4616 61.1875 81.2275 61.3332 81.0188 61.4437C80.1907 61.8822 79.3625 62.3196 78.4734 62.628C78.2801 62.6951 78.0965 62.8031 77.8945 62.6845C77.912 62.4675 78.0648 62.3908 78.1697 62.2832C79.3605 61.0617 80.3957 59.7125 81.2522 58.2456C82.3019 56.4477 82.7691 54.622 81.5294 52.6344C81.0296 51.8333 80.188 51.1112 80.3436 49.9362C80.7605 50.2024 81.1599 50.4573 81.5917 50.733C81.3521 49.3762 80.7172 48.7304 79.4818 48.5371C78.9584 49.2749 78.7679 49.9989 78.872 50.7203C79.0737 52.1177 79.9272 53.0782 80.9873 53.8972C81.3595 54.1847 81.7039 54.4893 81.9803 54.8986C81.6433 55.1885 81.2376 55.2848 80.8779 55.4669C79.3181 56.2567 78.0649 57.354 77.3471 58.987C77.2707 59.1609 77.1012 59.3902 77.2576 59.5298C77.7131 59.9365 77.3825 60.2705 77.2072 60.6157C76.6334 61.7458 76.0393 62.8658 75.4718 63.9991C75.2117 64.5184 75.2245 65.309 74.7435 65.5441C74.2143 65.8027 73.6361 65.2296 73.0782 65.0253C72.8441 64.9395 72.6375 64.8768 72.3393 65.0538ZM54.1992 60.0833C59.394 60.0844 64.5888 60.0854 69.7836 60.0868C70.7012 60.0871 70.7017 60.0879 70.7027 61.0308C70.7036 61.8706 70.6941 62.7105 70.7071 63.55C70.715 64.0592 70.9056 64.1599 71.377 63.9751C71.7016 63.8478 71.8036 63.6278 71.7992 63.2938C71.7857 62.2589 71.7723 61.2231 71.8027 60.1889C71.8164 59.7199 71.6656 59.3721 71.3457 59.0445C70.3501 58.0247 69.363 56.996 68.3928 55.952C68.1288 55.6679 67.8481 55.5639 67.469 55.5649C63.1726 55.576 58.8762 55.5796 54.5798 55.5689C54.1528 55.5678 53.8379 55.6964 53.5512 56.0043C52.5267 57.1044 51.489 58.1922 50.4528 59.2813C50.2977 59.4443 50.1957 59.6188 50.1987 59.8508C50.2138 61.0217 50.1517 62.1934 50.2679 63.3632C50.3139 63.8271 50.614 64.033 51.0021 64.0502C51.4827 64.0715 51.3961 63.6438 51.3957 63.3576C51.3944 62.4997 51.3738 61.6413 51.3348 60.7843C51.3114 60.2725 51.4706 60.0325 52.0321 60.0692C52.7129 60.1137 53.3985 60.0821 54.1992 60.0833ZM58.3008 62.3699C57.2858 62.3709 56.2703 62.3912 55.2561 62.3644C54.7716 62.3516 54.6044 62.5252 54.6076 63.0062C54.6228 65.2507 54.6228 67.4955 54.6038 69.74C54.5995 70.2457 54.7691 70.4146 55.2827 70.412C59.0286 70.3932 62.7746 70.4025 66.5205 70.398C67.315 70.397 67.4522 70.2617 67.4545 69.4872C67.4604 67.3987 67.4613 65.3102 67.4587 63.2217C67.4578 62.4737 67.3598 62.3757 66.6158 62.3746C63.8832 62.3704 61.1506 62.3711 58.3008 62.3699ZM61.8074 22.0586C60.2003 22.466 58.6269 21.9184 56.9883 21.8905C57.8052 20.9025 58.407 19.7323 59.7961 19.4138C57.9064 19.4518 56.7635 20.6285 56.7188 22.4514C56.691 23.5824 56.7775 24.7147 56.6544 25.8458C56.6142 26.2157 56.5411 26.4495 56.1138 26.4108C55.9589 26.3968 55.7559 26.3992 55.7373 26.5973C55.6973 27.0237 55.6157 27.4623 55.798 27.8797C56.2405 27.7991 55.979 27.3713 56.2406 27.1936C56.8299 27.4967 57.4328 27.8071 58.0361 28.1168C58.2249 28.2137 58.2339 28.3574 58.2086 28.5571C58.1001 29.4122 58.1653 30.2724 58.1734 31.1305C58.1775 31.557 58.3106 31.9017 58.7303 32.142C59.7932 32.7508 60.8434 32.3625 61.8902 32.1439C62.1613 32.0872 62.216 31.7767 62.162 31.5033C62.1107 31.2438 61.9159 31.1729 61.6815 31.1687C61.4473 31.1646 61.2112 31.1796 60.9792 31.155C60.7186 31.1274 60.318 31.2878 60.3046 30.8291C60.2916 30.3862 60.6867 30.4146 60.9862 30.3618C61.2753 30.3108 61.5958 30.4356 62.0019 30.1586C61.0068 29.9333 60.1741 30.1172 59.3355 30.3126C59.2551 29.184 60.3783 29.7089 60.7739 29.2813C60.6791 28.9462 60.4547 28.8455 60.2072 28.7601C59.6994 28.5849 59.6551 28.4162 59.9691 27.9099C60.1971 27.9333 60.4354 27.9222 60.651 27.9869C61.2026 28.1523 61.2814 27.8717 61.2702 27.4191C61.2514 26.658 61.2662 25.896 61.2633 25.1344C61.2617 24.6855 61.3482 24.4332 61.877 24.7251C62.1166 24.8574 62.5312 24.9397 62.5061 24.4599C62.4483 23.3587 62.7645 22.4039 63.614 21.4647C62.9518 21.7533 62.4345 21.9152 61.8074 22.0586ZM73.4994 49.1714C73.4678 49.9359 73.5221 50.6978 73.7644 51.4221C74.2508 52.8762 75.0483 54.0975 76.5452 54.6863C77.3892 55.0183 78.029 54.6787 78.3505 53.8407C78.7269 52.8596 78.6283 51.8579 78.5267 50.8533C78.4716 50.3092 78.2216 49.8628 77.857 49.458C77.4177 48.9702 76.8411 48.6816 76.3327 48.299C75.8115 47.9068 75.2627 47.6344 74.6721 47.4271C74.0229 47.1991 73.7951 47.3572 73.6166 48.0186C73.5239 48.3623 73.5081 48.7096 73.4994 49.1714ZM47.7692 52.6288C48.4971 51.3714 48.5744 49.9992 48.4488 48.6018C48.3989 48.0471 47.5885 47.3562 47.1671 47.4902C45.2445 48.1018 43.2314 49.4835 43.3701 52.1784C43.4163 53.0757 43.3871 53.0772 44.2071 53.4513C43.9639 53.7264 43.7563 54.0287 44.0111 54.3875C44.2259 54.6899 44.5436 54.7651 44.8937 54.7234C45.0866 54.7003 45.2798 54.6684 45.4685 54.6226C46.5421 54.3621 47.1581 53.5602 47.7692 52.6288ZM75.072 59.4428C75.2706 58.9342 75.4682 58.4251 75.668 57.917C76.0237 57.0127 76.0176 57.0203 75.3252 56.3895C75.0088 56.1012 74.725 55.7772 74.4257 55.4701C74.2148 55.2537 74.099 54.9347 73.7425 54.8346C73.4331 55.21 73.1359 55.5933 72.8148 55.9554C72.1711 56.6814 72.1696 56.752 72.8921 57.4019C72.9937 57.4932 73.0917 57.5891 73.1987 57.6736C73.6285 58.0128 73.791 58.4345 73.7702 58.9969C73.7372 59.8918 73.7902 60.7901 73.8181 61.6866C73.823 61.8429 73.7688 62.0514 74.0985 62.1383C74.4116 61.2706 74.726 60.3995 75.072 59.4428ZM47.6033 55.5098C47.2523 55.959 46.8526 56.358 46.3648 56.657C46.0895 56.8257 46.0083 57.0011 46.1508 57.328C46.7744 58.7582 47.2893 60.2307 47.7952 61.706C47.8528 61.8741 47.8637 62.0855 48.1636 62.2056C48.1636 61.3187 48.2172 60.4808 48.1493 59.653C48.0735 58.7301 48.2168 57.9593 49.0793 57.4514C49.2425 57.3553 49.3517 57.1721 49.5024 57.0495C49.7771 56.826 49.7577 56.6132 49.5412 56.3561C49.2149 55.9687 48.8978 55.5721 48.5999 55.1627C48.3704 54.8473 48.1639 54.7967 47.9187 55.1318C47.8383 55.2418 47.7458 55.343 47.6033 55.5098ZM59.741 53.0407C60.393 52.751 60.5534 52.4219 60.2905 51.8414C60.2246 51.6957 60.2152 51.582 60.294 51.4622C60.6253 50.9584 60.2872 50.7007 59.9163 50.4878C59.4875 50.2416 59.0157 50.2274 58.5593 50.3997C57.6163 50.7557 56.7083 51.2183 55.5017 51.2774C56.2635 51.6131 55.5279 51.8734 55.6504 52.2161C55.9567 53.0735 56.8118 53.6348 57.672 53.3125C58.3311 53.0655 58.9625 52.942 59.741 53.0407ZM61.671 50.8194C61.4665 51.0521 61.4235 51.2929 61.6178 51.5579C61.7376 51.7212 61.7664 51.8926 61.7132 52.1056C61.5327 52.8272 62.0296 53.3887 62.732 53.1608C63.37 52.9538 63.9486 53.0589 64.5615 53.1561C65.3932 53.2879 65.7537 53.0859 66.1501 52.3268C65.8887 52.1463 65.5419 52.3775 65.2219 52.1571C65.7215 51.857 66.1686 51.5885 66.6156 51.32C65.4409 51.2461 64.4064 50.765 63.3405 50.3602C62.772 50.1442 62.1836 50.2948 61.671 50.8194ZM56.8389 32.9178C56.8239 33.6157 56.8341 34.3155 56.7836 35.0109C56.7564 35.3858 56.8182 35.6829 57.0766 35.9644C57.787 36.7381 58.4765 37.5309 59.1823 38.3088C59.3005 38.4391 59.4154 38.6399 59.7356 38.4768C59.0648 36.9111 58.837 35.1944 58.0305 33.6712C57.8434 33.3179 57.5692 33.0468 57.2638 32.8029C57.1266 32.6933 56.9676 32.5612 56.8389 32.9178ZM54.0289 36.3839C54.4939 36.24 54.9568 36.089 55.4243 35.9538C56.0296 35.7788 55.7538 35.3042 55.6959 34.9882C55.6192 34.569 55.2804 34.7678 55.0415 34.876C54.6515 35.0527 54.265 35.2393 53.8878 35.4416C53.0358 35.8986 52.1842 36.3586 51.5185 37.1388C52.3251 36.8961 53.1318 36.6534 54.0289 36.3839ZM68.0731 35.5889C67.635 35.4159 67.238 35.1256 66.7284 35.0761C66.8535 35.531 69.1058 36.6919 70.3543 36.9559C70.0512 36.7454 69.8252 36.5661 69.5786 36.422C69.1088 36.1474 68.6272 35.8928 68.0731 35.5889ZM52.3272 53.0213C52.4399 53.0462 52.569 52.9875 52.5041 52.8925C52.2437 52.5107 51.9966 52.1033 51.5289 51.9179C51.632 52.3791 51.9735 52.6647 52.3272 53.0213Z" fill="black"/>
<path id="Vector_2" d="M96.8652 84.1957C96.7588 83.987 96.6694 83.8167 96.5799 83.6464C96.5218 85.3455 96.3293 87.0352 96.6025 88.783C95.5734 88.783 94.4703 88.783 93.3931 88.783C93.3931 84.7459 93.3931 80.8011 93.3931 76.7817C94.2793 76.7817 95.2085 76.7727 96.1373 76.7873C96.4129 76.7916 96.5056 77.0535 96.615 77.2549C97.4617 78.8141 98.3028 80.3762 99.2135 82.0628C99.2135 80.4697 99.2161 79.0026 99.2124 77.5354C99.2104 76.7594 99.2055 76.7598 99.9688 76.7603C100.76 76.7608 101.551 76.7604 102.343 76.7604C102.343 80.9462 102.343 85.0154 102.343 89.1352C101.486 89.1928 100.583 89.0602 99.6787 88.9899C99.4611 88.973 99.3847 88.762 99.2894 88.5889C98.4895 87.136 97.6852 85.6854 96.8652 84.1957Z" fill="black"/>
<path id="Vector_3" d="M83.1034 78.1028C83.1034 81.5077 83.1034 84.8572 83.1034 88.3036C82.1239 88.2421 80.9946 88.1711 79.8698 88.1004C80.053 86.4225 80.0603 84.8172 79.9874 83.1613C79.3889 84.1177 78.7905 85.074 78.1416 86.1111C77.3308 85.2215 77.016 84.0987 76.1494 83.1252C76.2011 84.8188 76.1094 86.3433 76.2619 87.9263C75.203 87.987 74.1251 87.9617 73.0491 87.9285C73.3419 84.1947 73.0224 80.5403 73.09 76.7999C73.9291 76.7155 74.8545 76.7432 75.7766 76.7932C76.0477 76.8079 76.1656 77.0941 76.2936 77.3132C76.7661 78.1222 77.2352 78.9332 77.711 79.7402C77.818 79.9216 77.9014 80.1287 78.1293 80.2306C78.4037 80.1575 78.4813 79.8949 78.605 79.6867C79.0535 78.9316 79.5036 78.177 79.9254 77.407C80.1758 76.9498 80.4917 76.7218 81.0446 76.7571C81.7918 76.8047 82.5444 76.7689 83.3752 76.7689C83.1638 77.247 83.0562 77.6349 83.1034 78.1028Z" fill="black"/>
<path id="Vector_4" d="M59.0492 78.7806C59.5198 79.637 59.97 80.4551 60.4203 81.2733C60.4635 81.2647 60.5066 81.2561 60.5498 81.2474C60.5498 79.934 60.5757 78.6197 60.5351 77.3075C60.5217 76.8749 60.6407 76.7576 61.0444 76.7674C61.7273 76.784 62.4111 76.7635 63.0945 76.7569C63.4061 76.7539 63.5388 76.8643 63.5202 77.2147C63.3497 80.4143 63.3918 83.6155 63.4909 86.8164C63.5004 87.1232 63.5581 87.4285 63.6002 87.7924C62.7361 88.0036 61.8675 87.9516 61.0016 87.875C60.7634 87.854 60.681 87.6092 60.573 87.4263C59.9277 86.3337 59.289 85.2371 58.6372 84.1485C58.4815 83.8885 58.3814 83.5824 58.0748 83.3717C58.0748 84.8545 58.0748 86.2986 58.0748 87.7996C57.013 87.7996 55.9054 87.7996 54.6951 87.7996C55.0853 87.3377 55.0147 86.8665 55.0148 86.4078C55.0157 83.908 55.0189 81.4082 55.0123 78.9084C55.0105 78.2308 55.0945 77.5457 54.8074 76.7821C55.8241 76.7821 56.7684 76.7744 57.7124 76.7878C57.931 76.7909 58.0287 76.9986 58.1263 77.1669C58.43 77.6904 58.7284 78.217 59.0492 78.7806Z" fill="black"/>
<path id="Vector_5" d="M36.3839 81.1523C36.3764 79.8251 36.3726 78.5563 36.3579 77.2877C36.355 77.0293 36.3698 76.79 36.6982 76.7987C38.607 76.8492 40.5292 76.5999 42.4226 76.955C43.8779 77.228 44.6656 78.1272 44.8226 79.5936C44.8825 80.1532 44.8715 80.7271 44.8273 81.2894C44.7676 82.048 44.4395 82.6971 43.7407 83.0533C43.3396 83.2577 43.3978 83.4698 43.5297 83.7987C44.0733 85.1536 44.5952 86.5172 45.1334 87.899C44.8591 88.1616 44.5094 88.0875 44.1956 88.0827C43.4603 88.0716 42.5978 88.3762 42.0245 87.9654C41.4775 87.5734 41.4367 86.6871 41.1625 86.0227C40.9768 85.5726 40.8062 85.1123 40.6794 84.6429C40.5398 84.1258 40.1629 84.1998 39.7941 84.2219C39.3741 84.247 39.4381 84.5739 39.4445 84.8329C39.4714 85.9195 39.3506 87.011 39.5669 88.1712C38.4592 88.2343 37.3739 88.3863 36.2966 88.3189C36.4561 85.917 36.3763 83.5632 36.3839 81.1523ZM41.8687 80.4135C41.8756 79.9956 41.6539 79.729 41.2603 79.6889C40.7788 79.64 40.2895 79.6659 39.8035 79.664C39.5975 79.6633 39.4999 79.7713 39.4571 79.9779C39.2185 81.1296 39.4069 81.3727 40.5522 81.36C40.7078 81.3583 40.8634 81.3512 41.0189 81.3537C41.5921 81.3628 41.8991 81.1059 41.8687 80.4135Z" fill="black"/>
<path id="Vector_6" d="M89.825 88.5554C87.9053 88.4932 86.0412 88.4324 84.2466 88.3738C84.309 84.4781 84.3741 80.6895 84.2192 76.8298C86.9693 76.8298 89.7913 76.8298 92.7046 76.8298C92.2805 77.6238 92.3511 78.4272 92.3644 79.2194C92.3715 79.644 92.1818 79.751 91.7962 79.7448C90.5464 79.725 89.2964 79.7247 88.0464 79.7243C87.3485 79.724 87.3257 79.7768 87.2994 80.5111C87.2806 81.036 87.3577 81.3636 88.0161 81.33C88.9901 81.2802 89.9688 81.3285 90.9449 81.3081C91.3666 81.2993 91.5566 81.4427 91.5401 81.8799C91.5202 82.4064 91.5163 82.9355 91.5447 83.4613C91.5703 83.9377 91.354 84.065 90.9146 84.0578C89.9189 84.0414 88.9215 84.0948 87.9272 84.0566C87.1325 84.0261 87.3315 84.5637 87.2887 85.0017C87.2394 85.5057 87.4251 85.701 87.9475 85.6888C89.2164 85.6589 90.4867 85.6939 91.7556 85.6644C92.2715 85.6524 92.4428 85.8619 92.4574 86.3482C92.4794 87.0845 92.3815 87.8297 92.6218 88.6105C91.6833 88.7395 90.7819 88.6288 89.825 88.5554Z" fill="black"/>
<path id="Vector_7" d="M24.6935 76.9734C26.339 77.5191 26.9506 78.3646 26.925 79.9655C26.9192 80.3294 26.8151 80.4983 26.4252 80.4992C25.8207 80.5007 25.2152 80.5331 24.6123 80.5797C24.2292 80.6093 24.0179 80.4861 23.8543 80.1146C23.6447 79.6388 22.9477 79.4207 22.3677 79.5809C21.9341 79.7007 21.6603 79.9695 21.6189 80.4455C21.5781 80.9153 21.8106 81.1717 22.2304 81.3153C22.9541 81.5629 23.7087 81.6694 24.4555 81.8063C26.4479 82.1715 27.0252 82.8568 27.0287 84.9012C27.0302 85.8175 27.09 86.7381 26.4859 87.5388C25.8352 88.4012 24.9177 88.7773 23.91 88.8739C22.26 89.0319 20.6007 89.093 18.945 89.1901C18.8733 89.1943 18.7988 89.1505 18.7112 89.1249C18.8188 88.1621 18.7668 87.2082 18.7639 86.2558C18.7626 85.8286 18.9122 85.6685 19.344 85.6727C19.9866 85.679 20.6333 85.7322 21.2732 85.6186C21.4402 85.5889 21.5749 85.6396 21.7041 85.7458C22.1549 86.1161 22.6923 86.1018 23.2134 86.0134C23.6361 85.9418 23.9874 85.7061 24.0241 85.2167C24.0608 84.727 23.7166 84.5111 23.3232 84.409C22.5504 84.2085 21.7619 84.0682 20.9891 83.8679C20.557 83.7559 20.1286 83.6044 19.7247 83.4151C19.1401 83.1411 18.7797 82.6784 18.7202 82.0094C18.6351 81.052 18.6162 80.0861 18.8067 79.1499C19.0699 77.8563 19.9999 77.1835 21.233 76.9012C22.3724 76.6403 23.5148 76.6611 24.6935 76.9734Z" fill="black"/>
<path id="Vector_8" d="M52.8796 87.3632C51.1242 88.2586 49.352 88.3083 47.5831 87.615C46.2944 87.1099 45.633 86.0863 45.633 84.698C45.6331 83.0048 45.6544 81.3105 45.7203 79.6187C45.7619 78.552 46.3735 77.7728 47.2921 77.3127C49.0539 76.4301 50.8623 76.4265 52.6393 77.2878C53.8212 77.8606 54.2883 78.9079 54.312 80.1588C54.3411 81.6988 54.3343 83.2401 54.3095 84.7803C54.292 85.8624 53.8383 86.7359 52.8796 87.3632ZM50.2021 79.4415C49.0318 79.4285 48.513 79.8181 48.5212 80.7341C48.5319 81.9218 48.5649 83.1094 48.5843 84.2971C48.5886 84.56 48.624 84.8118 48.853 84.9746C49.4332 85.3871 50.0822 85.3264 50.6996 85.1382C51.2545 84.969 51.3348 84.456 51.3353 83.9443C51.3364 82.9119 51.3401 81.8794 51.3356 80.847C51.3319 80.0116 51.1175 79.7305 50.2021 79.4415Z" fill="black"/>
<path id="Vector_9" d="M69.5765 84.3477C68.2828 84.3021 68.2844 84.3021 68.2873 83.0597C68.2904 81.6886 68.3009 81.9309 69.4216 81.9158C70.2805 81.9043 71.1399 81.9275 71.9988 81.9135C72.433 81.9065 72.6537 82.0572 72.6465 82.5207C72.6302 83.5749 72.6375 84.6294 72.6309 85.6837C72.6265 86.3949 72.2919 86.9388 71.6796 87.2553C69.7818 88.2362 67.8294 88.3235 65.8767 87.4404C64.8315 86.9677 64.3335 86.0526 64.3197 84.9453C64.2972 83.1504 64.3189 81.3523 64.4073 79.5597C64.4649 78.3939 65.1119 77.5212 66.203 77.0953C67.8821 76.4397 69.5632 76.4901 71.185 77.3247C72.2905 77.8935 72.6722 78.8585 72.6254 80.049C72.6128 80.3703 72.4558 80.4946 72.1551 80.5167C71.4505 80.5684 70.7511 80.4785 70.0494 80.4552C69.8475 80.4485 69.7574 80.3223 69.6711 80.1474C69.3803 79.5584 68.766 79.3005 68.1079 79.4643C67.4682 79.6235 67.265 79.9051 67.2642 80.6609C67.2628 81.8519 67.2622 83.043 67.2725 84.234C67.2779 84.8651 67.5104 85.118 68.1301 85.1898C68.4992 85.2326 68.8844 85.2832 69.2339 85.1549C69.5768 85.0289 69.9514 84.8441 69.5765 84.3477Z" fill="black"/>
<path id="Vector_10" d="M30.113 88.1093C30.1202 85.5204 30.1108 82.9831 30.1335 80.4461C30.1381 79.9361 29.9779 79.7395 29.4636 79.7705C28.9192 79.8034 28.371 79.7689 27.8247 79.7791C27.482 79.7854 27.3207 79.644 27.3282 79.2945C27.3428 78.6117 27.3506 77.9287 27.3513 77.2457C27.3517 76.9295 27.4859 76.7867 27.8094 76.7876C30.4246 76.7952 33.0398 76.7955 35.655 76.8026C35.7445 76.8028 35.8338 76.8508 35.951 76.8845C35.7886 77.7293 35.7895 78.5644 35.7372 79.3955C35.7178 79.7042 35.567 79.7893 35.2845 79.7824C34.7383 79.769 34.1914 79.7858 33.6452 79.772C33.2696 79.7625 33.1279 79.9229 33.1293 80.2976C33.1387 82.7957 33.132 85.2939 33.1405 87.792C33.1413 88.0178 33.213 88.2435 33.259 88.5112C32.2698 88.6857 31.2817 88.7197 30.2928 88.6863C29.8874 88.6727 30.0713 88.3726 30.113 88.1093Z" fill="black"/>
<path id="Vector_11" d="M43.5971 31.7563C45.7156 30.1675 47.9741 28.9017 50.3418 27.8235C50.5013 27.7509 50.6625 27.6798 50.8282 27.6235C51.3917 27.4319 51.7654 27.5676 51.9405 28.019C52.1264 28.4986 51.9429 28.9113 51.4148 29.14C49.5122 29.9639 47.687 30.9408 45.9807 32.1101C42.9485 34.1882 40.3105 36.6868 38.2234 39.7339C37.9777 40.0926 37.7275 40.3888 37.2419 40.3261C36.5537 40.2372 36.2743 39.6408 36.653 39.0364C37.5694 37.5737 38.7161 36.2938 39.898 35.049C41.0273 33.8597 42.2624 32.7816 43.5971 31.7563Z" fill="black"/>
<path id="Vector_12" d="M84.6052 40.3487C84.1958 40.3724 83.9829 40.1503 83.7992 39.8853C80.7394 35.4718 76.7198 32.1909 71.9258 29.8246C71.4539 29.5917 70.9696 29.3836 70.4987 29.1487C69.9872 28.8936 69.8166 28.4662 70.0177 27.9966C70.2142 27.5379 70.5601 27.4012 71.1361 27.6364C73.8255 28.7345 76.3095 30.1981 78.5765 32.0065C81.0873 34.0093 83.3502 36.2631 85.1701 38.9296C85.6691 39.6609 85.4898 40.1279 84.6052 40.3487Z" fill="black"/>
<path id="Vector_13" d="M45.4539 94.8133C45.4556 94.228 45.4646 93.7011 45.4565 93.1745C45.4508 92.8025 45.6198 92.6835 45.9868 92.6518C46.729 92.5875 47.2767 92.7444 47.6679 93.4731C48.0389 94.1642 48.5678 94.7706 49.0273 95.4142C49.0793 95.4004 49.1313 95.3866 49.1833 95.3728C49.1833 94.7014 49.2114 94.0284 49.1745 93.359C49.1447 92.8196 49.3415 92.6389 49.8785 92.6549C50.8061 92.6824 50.8481 92.6714 50.8555 93.326C50.8733 94.8866 50.867 96.4474 50.8851 98.008C50.8899 98.4244 50.7368 98.5717 50.3071 98.6099C49.5309 98.6788 48.9785 98.479 48.5692 97.7591C48.2117 97.1304 47.7742 96.533 47.1465 95.8897C47.1465 96.6566 47.1147 97.2747 47.1558 97.888C47.1945 98.4661 46.9571 98.6738 46.411 98.5997C46.3918 98.5971 46.372 98.5995 46.3525 98.5996C45.4637 98.6031 45.4639 98.6031 45.4618 97.7396C45.4594 96.7837 45.4565 95.8277 45.4539 94.8133Z" fill="black"/>
<path id="Vector_14" d="M55.4617 97.831C55.0139 97.2148 54.591 96.6334 54.1124 95.9754C53.9487 96.6471 54.052 97.2424 54.0139 97.8277C53.9971 98.0878 54.097 98.4384 53.7571 98.534C53.3466 98.6494 52.9052 98.6647 52.4937 98.5116C52.3319 98.4514 52.354 98.2466 52.3536 98.0926C52.3495 96.4352 52.3522 94.7777 52.3433 93.1204C52.3416 92.8017 52.467 92.6889 52.7878 92.6576C53.5199 92.5862 54.0733 92.7114 54.463 93.4574C54.8259 94.1523 55.3685 94.7532 55.9209 95.5187C56.0595 94.6813 55.9881 94.0065 56.0122 93.3372C56.0362 92.6691 56.0501 92.6794 56.9758 92.6559C57.4829 92.6431 57.713 92.7642 57.6988 93.3345C57.6604 94.8741 57.6693 96.4152 57.683 97.9554C57.6872 98.4282 57.5231 98.5969 57.0364 98.6106C56.367 98.6294 55.7916 98.558 55.4617 97.831Z" fill="black"/>
<path id="Vector_15" d="M32.8032 53.2854C32.6753 53.733 32.7844 54.1531 32.6479 54.5519C32.4814 55.0384 32.1182 55.218 31.4711 55.102C31.0072 55.0188 30.9603 54.7034 30.9978 54.3135C31.4282 49.8459 32.6959 45.6489 35.0356 41.7984C35.1768 41.5662 35.3517 41.354 35.5158 41.1363C35.8213 40.7309 36.1938 40.6237 36.6334 40.9149C37.0758 41.2081 37.1801 41.6684 36.8596 42.1279C35.4146 44.1992 34.4411 46.4856 33.7441 48.8978C33.333 50.3205 32.9771 51.7572 32.8032 53.2854Z" fill="black"/>
<path id="Vector_16" d="M89.0474 52.7217C88.7601 50.5507 88.1154 48.5308 87.3549 46.5446C86.7673 45.0097 86.0064 43.5615 85.124 42.1748C84.7929 41.6546 84.8696 41.163 85.2857 40.8839C85.686 40.6154 86.1725 40.7513 86.5191 41.2858C88.2113 43.8946 89.3759 46.7325 90.1569 49.7354C90.545 51.2277 90.7948 52.741 90.8713 54.2813C90.9013 54.8848 90.7405 55.0392 90.0774 55.0868C89.5796 55.1226 89.2535 54.9962 89.2397 54.3959C89.2272 53.8539 89.1207 53.314 89.0474 52.7217Z" fill="black"/>
<path id="Vector_17" d="M25.9755 70.6696C25.9373 70.1006 26.2199 69.9271 26.6898 69.9273C30.8633 69.9289 35.0369 69.9324 39.2104 69.9199C39.8309 69.9181 39.9003 70.2695 39.8872 70.7556C39.8687 71.444 39.7596 71.6062 39.1479 71.6075C36.164 71.6138 33.1801 71.6082 30.1962 71.6056C29.0846 71.6047 27.9729 71.6059 26.8613 71.5956C26.079 71.5883 25.9952 71.4975 25.9755 70.6696Z" fill="black"/>
<path id="Vector_18" d="M93.5123 71.6076C89.9848 71.6069 86.5152 71.6086 83.0456 71.6038C82.1335 71.6026 82.0497 71.484 82.0989 70.5828C82.1244 70.1155 82.3219 69.9228 82.786 69.9236C86.6649 69.9299 90.5438 69.9241 94.4228 69.9305C95.004 69.9315 95.1414 70.1294 95.1623 70.7983C95.1782 71.308 95.0321 71.6398 94.4472 71.6138C94.1554 71.6009 93.8626 71.609 93.5123 71.6076Z" fill="black"/>
<path id="Vector_19" d="M75.1811 95.1891C76.1419 95.5443 76.4512 95.9198 76.4507 96.6947C76.4503 97.5366 76.0041 98.2229 75.2157 98.4925C73.9561 98.9232 72.7949 98.727 71.781 97.8399C71.5151 97.6072 71.3162 97.3323 71.6813 97.0097C71.9775 96.7479 72.1822 96.2484 72.7171 96.722C73.1695 97.1225 73.7251 97.3196 74.3435 97.1952C74.5499 97.1537 74.7926 97.0713 74.8124 96.8186C74.8347 96.5332 74.5654 96.5003 74.3679 96.4441C73.769 96.2738 73.1544 96.1571 72.579 95.9084C71.4471 95.4192 71.2146 93.9858 72.1349 93.1712C73.2442 92.1892 75.3884 92.4258 76.2864 93.6417C76.2334 93.8992 75.9798 94.0215 75.8498 94.2316C75.6652 94.5301 75.4402 94.5146 75.155 94.3533C74.7491 94.1236 74.3303 93.8974 73.8319 93.9907C73.5981 94.0345 73.3418 94.0823 73.3138 94.3738C73.2875 94.6469 73.5289 94.7291 73.7296 94.7897C74.195 94.9303 74.6678 95.0461 75.1811 95.1891Z" fill="black"/>
<path id="Vector_20" d="M81.9462 94.0273C82.0081 93.8559 82.0504 93.726 82.0985 93.5981C82.5144 92.4919 82.3466 92.7054 83.4564 92.6549C83.928 92.6334 84.147 92.8039 84.3064 93.2428C84.8991 94.8746 85.4992 96.5048 86.2138 98.0892C86.2703 98.2145 86.332 98.3376 86.2487 98.526C85.7826 98.6572 85.2796 98.5848 84.7821 98.5753C84.6076 98.572 84.4803 98.4539 84.4508 98.2904C84.3552 97.7609 83.9768 97.7537 83.564 97.7719C83.2327 97.7864 82.9001 97.7819 82.5684 97.775C82.3235 97.7699 82.1346 97.8509 82.0907 98.1048C82.017 98.5311 81.7396 98.6254 81.3658 98.5951C81.0215 98.5673 80.6653 98.6686 80.2694 98.4812C80.7023 96.9643 81.391 95.5441 81.9462 94.0273ZM83.6258 95.7235C83.5202 95.4424 83.4146 95.1613 83.2621 94.7554C83.0751 95.355 82.9292 95.8229 82.7751 96.3172C83.162 96.445 83.4825 96.4528 83.8365 96.3309C83.7653 96.1287 83.7084 95.9675 83.6258 95.7235Z" fill="black"/>
<path id="Vector_21" d="M36.3913 94.9336C36.0942 94.1731 35.8124 93.4554 35.5203 92.7113C36.0582 92.5538 36.5246 92.6385 36.9854 92.63C37.2729 92.6246 37.3191 92.8641 37.3901 93.0577C37.705 93.9165 38.0094 94.7792 38.3196 95.6398C38.3829 95.8154 38.3868 96.0216 38.6249 96.1922C38.9092 95.3638 39.1797 94.5612 39.46 93.762C39.8953 92.5208 40.1387 92.3959 41.4842 92.7018C41.584 92.9063 41.4654 93.0811 41.3989 93.2577C40.8089 94.8246 40.1985 96.3841 39.6307 97.959C39.4615 98.4284 39.199 98.5938 38.7188 98.5604C38.238 98.527 37.7633 98.6319 37.5482 97.9783C37.2138 96.9625 36.7916 95.9755 36.3913 94.9336Z" fill="black"/>
<path id="Vector_22" d="M60.6373 93.2353C60.9028 93.6697 61.1478 94.0646 61.4099 94.4873C61.8391 94.2495 61.999 93.8491 62.1329 93.4946C62.3999 92.7877 62.8636 92.5466 63.5761 92.6612C63.8392 92.7034 64.1189 92.6055 64.4019 92.7542C64.3094 93.2268 63.9853 93.5798 63.7745 93.9863C63.631 94.2627 63.4799 94.5417 63.2894 94.7861C62.5616 95.7198 62.2224 96.7555 62.3857 97.9419C62.4504 98.4122 62.2513 98.6419 61.761 98.6008C61.5673 98.5846 61.3707 98.5906 61.176 98.5995C60.809 98.6162 60.6889 98.4215 60.7226 98.0887C60.7344 97.9723 60.7585 97.8572 60.7692 97.7407C60.8457 96.9067 60.7509 96.1416 60.2138 95.4245C59.599 94.6037 59.0935 93.7011 58.5365 92.8277C59.3654 92.4558 60.256 92.6283 60.6373 93.2353Z" fill="black"/>
<path id="Vector_23" d="M66.3099 94.1459C66.1777 94.1457 66.0996 94.1458 66.0215 94.1454C65.1399 94.1415 64.9195 93.8382 65.1263 92.9546C65.1784 92.7318 65.3063 92.6705 65.4975 92.6702C67.0398 92.6682 68.5822 92.6617 70.1244 92.6716C70.7009 92.6753 70.5315 93.1406 70.5455 93.4544C70.5597 93.773 70.6154 94.1624 70.0876 94.1489C69.7755 94.1409 69.4621 94.1624 69.1507 94.145C68.7492 94.1225 68.5935 94.2874 68.5993 94.694C68.6149 95.7871 68.5682 96.8819 68.6124 97.9734C68.6382 98.6085 68.2875 98.6119 67.8416 98.5983C67.4116 98.5852 66.967 98.6802 66.9936 97.9809C67.0337 96.9281 66.9824 95.8721 67.0134 94.8187C67.0279 94.3234 66.8978 94.0652 66.3099 94.1459Z" fill="black"/>
<path id="Vector_24" d="M43.1482 98.5973C42.7793 98.6093 42.6268 98.4643 42.6271 98.1449C42.6286 96.4699 42.6288 94.7949 42.622 93.12C42.6207 92.7997 42.7575 92.6505 43.076 92.6657C43.1148 92.6676 43.1539 92.665 43.1928 92.6635C44.2974 92.6226 44.293 92.6226 44.2961 93.7186C44.2996 94.9651 44.3106 96.2115 44.3207 97.458C44.3314 98.7743 44.3686 98.5863 43.1482 98.5973Z" fill="black"/>
<path id="Vector_25" d="M77.6466 96.8801C77.6491 95.6381 77.6668 94.451 77.643 93.2647C77.6341 92.826 77.736 92.6427 78.2194 92.6525C79.2605 92.6735 79.2612 92.6478 79.2619 93.6924C79.2627 95.0349 79.2636 96.3773 79.2633 97.7198C79.2632 98.6044 79.2623 98.6045 78.3537 98.5991C78.237 98.5984 78.1202 98.5921 78.0036 98.5944C77.7049 98.6005 77.5784 98.4397 77.5883 98.1589C77.6027 97.7509 77.6258 97.3431 77.6466 96.8801Z" fill="black"/>
<path id="Vector_26" d="M30.7539 59.1298C30.458 58.4922 30.5197 57.8589 30.6339 57.2575C30.7511 56.6403 31.3183 56.8086 31.7446 56.8074C32.13 56.8063 32.366 57.0085 32.3751 57.4168C32.3812 57.6893 32.3804 57.962 32.3799 58.2346C32.378 59.3274 31.8062 59.6622 30.7539 59.1298Z" fill="black"/>
<path id="Vector_27" d="M91.2159 57.9007C91.2168 58.1123 91.2189 58.2683 91.218 58.4242C91.2135 59.251 90.8372 59.5372 90.0242 59.3458C89.6664 59.2616 89.4539 59.0411 89.5025 58.6849C89.5867 58.0673 89.1284 57.2729 89.8459 56.8652C90.6068 56.4329 91.2015 56.9101 91.2159 57.9007Z" fill="black"/>
<path id="Vector_28" d="M47.3213 66.8028C47.4953 66.3949 47.8432 66.4336 48.1851 66.4491C47.8975 66.5722 47.7303 66.9455 47.3213 66.8028Z" fill="black"/>
<path id="Vector_29" d="M68.6113 57.8345C68.9817 58.272 69.441 58.5825 69.7576 59.153C63.8856 59.153 58.1137 59.153 52.3528 59.153C52.2789 58.9143 52.4265 58.8181 52.5253 58.7089C52.774 58.4341 53.0356 58.171 53.2864 57.898C54.765 56.2883 54.763 56.3523 56.9748 56.4023C60.057 56.472 63.1421 56.4665 66.2249 56.4198C67.075 56.4069 67.6885 56.6366 68.1604 57.3193C68.2816 57.4946 68.441 57.6436 68.6113 57.8345Z" fill="black"/>
<path id="Vector_30" d="M65.7089 69.1201C65.3757 69.1806 65.0854 69.238 64.7949 69.239C62.3586 69.2475 59.9222 69.2563 57.486 69.2418C56.4979 69.2359 56.4741 69.1967 56.5017 68.1993C56.5394 66.8344 56.5963 65.4699 56.5138 64.1049C56.489 63.693 56.6578 63.501 57.0924 63.5017C59.8443 63.5064 62.5962 63.4984 65.3481 63.4915C65.6377 63.4907 65.863 63.5684 65.8654 63.9018C65.8776 65.5791 65.9283 67.2569 65.8246 68.9332C65.8213 68.9871 65.7768 69.0383 65.7089 69.1201ZM64.051 64.8262C63.6828 64.7821 63.4806 64.9595 63.347 65.2945C63.0947 65.9275 62.8066 66.5462 62.5471 67.1765C62.4624 67.3823 62.2696 67.613 62.4672 67.8272C62.6566 68.0325 62.9415 67.9498 63.1911 67.9433C63.4324 67.937 63.5093 67.7498 63.5858 67.5679C63.812 67.0292 64.0531 66.496 64.2556 65.9485C64.3794 65.6136 64.642 65.3197 64.619 64.9545C64.4607 64.8031 64.2967 64.844 64.051 64.8262ZM59.77 67.2117C59.4771 66.5325 59.1878 65.8517 58.8899 65.1746C58.6875 64.7145 58.2773 64.7803 57.9363 64.8919C57.5398 65.0216 57.7493 65.3464 57.8481 65.5795C58.1369 66.2607 58.4504 66.9314 58.7522 67.6071C58.929 68.0028 59.2705 67.9909 59.5987 67.9124C59.9492 67.8287 59.8778 67.5499 59.77 67.2117ZM61.5924 67.8617C61.8756 67.0513 61.6472 66.2154 61.7147 65.3941C61.7422 65.0603 61.6537 64.8366 61.2433 64.835C60.8111 64.8334 60.7255 65.0595 60.7326 65.425C60.7443 66.0257 60.7292 66.6269 60.7302 67.2279C60.7313 67.9311 60.7851 67.9763 61.5924 67.8617Z" fill="black"/>
<path id="Vector_31" d="M57.3446 25.0984C58.0702 24.7564 58.768 24.5753 59.5341 24.7828C59.786 24.851 60.0685 24.8752 60.3171 24.6829C60.6303 24.4406 60.7933 24.6009 60.8066 24.9304C60.8206 25.2754 60.9547 25.7565 60.679 25.9344C60.1061 26.3042 59.6952 26.9816 58.9129 26.9848C58.5451 26.9862 58.3313 26.6971 58.0991 26.4656C57.8261 26.1934 57.5686 25.943 57.1871 25.7749C56.6712 25.5475 57.0507 25.3066 57.3446 25.0984Z" fill="black"/>
</g>
</svg>
