<svg width="84" height="22" viewBox="0 0 84 22" fill="none" xmlns="http://www.w3.org/2000/svg">
<path d="M78.2067 7.54949C78.1003 7.34075 78.0108 7.17043 77.9214 7.00011C77.8632 8.69928 77.6708 10.389 77.9439 12.1368C76.9148 12.1368 75.8117 12.1368 74.7345 12.1368C74.7345 8.09965 74.7345 4.15482 74.7345 0.135474C75.6207 0.135474 76.5499 0.12644 77.4787 0.141024C77.7544 0.145351 77.847 0.407271 77.9564 0.608701C78.8031 2.16782 79.6443 3.72994 80.5549 5.41661C80.5549 3.82345 80.5576 2.35632 80.5539 0.889203C80.5519 0.113151 80.5469 0.113558 81.3102 0.114037C82.1011 0.114531 82.892 0.114152 83.684 0.114152C83.684 4.29993 83.684 8.36917 83.684 12.4889C82.827 12.5466 81.9241 12.4139 81.0202 12.3437C80.8025 12.3268 80.7261 12.1158 80.6308 11.9427C79.8309 10.4897 79.0266 9.03918 78.2067 7.54949Z" fill="black"/>
<path d="M64.4449 1.45652C64.4449 4.86144 64.4449 8.21101 64.4449 11.6573C63.4654 11.5958 62.3361 11.5249 61.2113 11.4542C61.3945 9.77626 61.4017 8.17095 61.3288 6.51506C60.7304 7.47143 60.132 8.4278 59.4831 9.46486C58.6723 8.57525 58.3575 7.45249 57.4908 6.47895C57.5425 8.17254 57.4509 9.69702 57.6033 11.28C56.5444 11.3408 55.4666 11.3155 54.3905 11.2823C54.6834 7.54842 54.3639 3.89406 54.4315 0.153617C55.2706 0.0692596 56.196 0.0969758 57.1181 0.146994C57.3892 0.161699 57.507 0.447866 57.635 0.666977C58.1076 1.47594 58.5766 2.28698 59.0525 3.09399C59.1595 3.27538 59.2429 3.48248 59.4707 3.58436C59.7452 3.51129 59.8228 3.24867 59.9465 3.04041C60.3949 2.28536 60.8451 1.53072 61.2669 0.760719C61.5173 0.303527 61.8332 0.0756038 62.386 0.11083C63.1333 0.158445 63.8859 0.122661 64.7166 0.122661C64.5053 0.600773 64.3977 0.988707 64.4449 1.45652Z" fill="black"/>
<path d="M40.3907 2.13435C40.8612 2.99074 41.3115 3.80891 41.7618 4.62708C41.8049 4.61845 41.8481 4.60982 41.8912 4.6012C41.8912 3.28771 41.9172 1.97344 41.8765 0.661216C41.8631 0.228708 41.9821 0.111349 42.3859 0.121162C43.0688 0.137749 43.7526 0.117242 44.436 0.110655C44.7475 0.107658 44.8803 0.218015 44.8616 0.568433C44.6911 3.7681 44.7333 6.9693 44.8324 10.1701C44.8419 10.4769 44.8996 10.7822 44.9416 11.1461C44.0775 11.3574 43.209 11.3054 42.3431 11.2288C42.1048 11.2077 42.0225 10.963 41.9144 10.78C41.2692 9.68741 40.6305 8.59089 39.9786 7.50223C39.823 7.24227 39.7229 6.93613 39.4162 6.72545C39.4162 8.20827 39.4162 9.65238 39.4162 11.1533C38.3545 11.1533 37.2469 11.1533 36.0366 11.1533C36.4267 10.6915 36.3561 10.2203 36.3563 9.76157C36.3571 7.26177 36.3604 4.76195 36.3537 2.26216C36.352 1.58455 36.436 0.899417 36.1489 0.135853C37.1655 0.135853 38.1099 0.128179 39.0539 0.141582C39.2724 0.14468 39.3701 0.352376 39.4678 0.520668C39.7714 1.0442 40.0699 1.57075 40.3907 2.13435Z" fill="black"/>
<path d="M17.7254 4.50605C17.7179 3.17883 17.7141 1.9101 17.6994 0.641499C17.6964 0.383069 17.7113 0.143795 18.0396 0.152471C19.9484 0.202939 21.8707 -0.0463773 23.7641 0.30879C25.2194 0.581782 26.007 1.48101 26.164 2.94737C26.224 3.50693 26.213 4.08088 26.1687 4.64311C26.1091 5.40178 25.7809 6.05084 25.0821 6.40706C24.6811 6.61151 24.7392 6.82355 24.8712 7.15246C25.4148 8.50733 25.9366 9.87093 26.4748 11.2528C26.2005 11.5153 25.8508 11.4412 25.5371 11.4365C24.8018 11.4253 23.9393 11.73 23.366 11.3191C22.8189 10.9271 22.7781 10.0408 22.504 9.37642C22.3183 8.92631 22.1476 8.46604 22.0209 7.99664C21.8813 7.47956 21.5044 7.55358 21.1355 7.57565C20.7156 7.60077 20.7796 7.92769 20.786 8.18662C20.8129 9.27325 20.692 10.3647 20.9083 11.525C19.8006 11.5881 18.7153 11.74 17.6381 11.6727C17.7976 9.27072 17.7178 6.91697 17.7254 4.50605ZM23.2102 3.76725C23.217 3.34932 22.9954 3.08278 22.6018 3.0427C22.1203 2.99371 21.6309 3.01965 21.145 3.01781C20.939 3.01702 20.8414 3.12506 20.7986 3.33168C20.5599 4.48338 20.7484 4.72644 21.8937 4.71376C22.0493 4.71204 22.2049 4.705 22.3604 4.70746C22.9336 4.71652 23.2405 4.45966 23.2102 3.76725Z" fill="black"/>
<path d="M71.1664 11.9092C69.2468 11.847 67.3827 11.7862 65.5881 11.7276C65.6505 7.83189 65.7156 4.04324 65.5607 0.183594C68.3108 0.183594 71.1327 0.183594 74.0461 0.183594C73.6219 0.977513 73.6925 1.78099 73.7058 2.57319C73.7129 2.99777 73.5232 3.10471 73.1376 3.09859C71.8879 3.07876 70.6378 3.07843 69.3879 3.07801C68.6899 3.07778 68.6671 3.1306 68.6408 3.86481C68.622 4.38978 68.6991 4.71735 69.3575 4.68373C70.3316 4.63399 71.3102 4.68229 72.2863 4.66185C72.7081 4.65302 72.898 4.79644 72.8815 5.23361C72.8617 5.76015 72.8578 6.28921 72.8861 6.81507C72.9118 7.29145 72.6954 7.41879 72.256 7.41156C71.2604 7.39518 70.2629 7.44855 69.2686 7.41037C68.474 7.37985 68.6729 7.91746 68.6301 8.35543C68.5808 8.85942 68.7666 9.05479 69.289 9.04252C70.5578 9.0127 71.8282 9.0477 73.0971 9.01819C73.613 9.00618 73.7842 9.21562 73.7988 9.70197C73.8209 10.4383 73.7229 11.1835 73.9632 11.9642C73.0248 12.0933 72.1234 11.9825 71.1664 11.9092Z" fill="black"/>
<path d="M6.03499 0.327147C7.6805 0.872858 8.29205 1.71832 8.26644 3.31928C8.26062 3.68316 8.15659 3.85206 7.76671 3.853C7.16219 3.85446 6.5567 3.88684 5.95373 3.93342C5.57067 3.96301 5.35938 3.83983 5.19572 3.46834C4.98613 2.99258 4.28916 2.77444 3.70914 2.9347C3.27556 3.0545 3.00176 3.32327 2.9604 3.79926C2.91957 4.26906 3.15208 4.52544 3.5719 4.66907C4.29552 4.91665 5.05015 5.02321 5.79697 5.16008C7.78932 5.52521 8.36669 6.21058 8.37014 8.25501C8.37169 9.17127 8.43148 10.0919 7.82735 10.8926C7.17663 11.755 6.2592 12.1311 5.25145 12.2276C3.60145 12.3857 1.94212 12.4467 0.286435 12.5439C0.214759 12.5481 0.140264 12.5043 0.0526681 12.4786C0.160269 11.5159 0.10829 10.562 0.105359 9.60953C0.104045 9.18236 0.253641 9.02224 0.685462 9.02646C1.32811 9.03274 1.97476 9.08591 2.61465 8.97233C2.7817 8.94267 2.91641 8.99339 3.04559 9.09952C3.4964 9.46985 4.03375 9.45554 4.55485 9.36719C4.97757 9.29552 5.32888 9.05988 5.36555 8.5705C5.40226 8.08071 5.05806 7.86484 4.66465 7.76275C3.89185 7.56222 3.10341 7.42199 2.33056 7.22163C1.89848 7.10962 1.47011 6.95816 1.06614 6.76885C0.481577 6.4949 0.12115 6.03221 0.0616875 5.36316C-0.023403 4.40576 -0.0423161 3.43986 0.148174 2.50369C0.411408 1.21004 1.3414 0.537253 2.57442 0.254956C3.7139 -0.00593386 4.85624 0.0148944 6.03499 0.327147Z" fill="black"/>
<path d="M34.221 10.717C32.4657 11.6124 30.6935 11.662 28.9246 10.9688C27.6358 10.4637 26.9744 9.44008 26.9745 8.0518C26.9745 6.35856 26.9959 4.66423 27.0618 2.97247C27.1034 1.9058 27.7149 1.1266 28.6335 0.666415C30.3953 -0.216146 32.2038 -0.219722 33.9808 0.641538C35.1627 1.21434 35.6298 2.26168 35.6535 3.51252C35.6826 5.05254 35.6758 6.59386 35.6509 8.13406C35.6334 9.21617 35.1797 10.0896 34.221 10.717ZM31.5436 2.79522C30.3733 2.78227 29.8544 3.17186 29.8626 4.08783C29.8733 5.27559 29.9063 6.46312 29.9257 7.65082C29.93 7.91374 29.9655 8.16559 30.1945 8.32838C30.7747 8.74087 31.4236 8.68018 32.0411 8.49192C32.596 8.32274 32.6762 7.80979 32.6768 7.29805C32.6779 6.26562 32.6816 5.23316 32.677 4.20074C32.6734 3.36536 32.459 3.08423 31.5436 2.79522Z" fill="black"/>
<path d="M50.918 7.70143C49.6243 7.6559 49.6259 7.65591 49.6287 6.41348C49.6319 5.04232 49.6423 5.28461 50.763 5.26956C51.622 5.25802 52.4814 5.28121 53.3403 5.2673C53.7745 5.26026 53.9952 5.41097 53.988 5.8745C53.9717 6.92864 53.979 7.98314 53.9724 9.03746C53.968 9.74862 53.6333 10.2926 53.021 10.6091C51.1233 11.5899 49.1709 11.6773 47.2182 10.7942C46.173 10.3215 45.675 9.40633 45.6611 8.29906C45.6387 6.50418 45.6603 4.70601 45.7488 2.91346C45.8063 1.74767 46.4533 0.874989 47.5444 0.449026C49.2236 -0.206506 50.9047 -0.156159 52.5265 0.678423C53.632 1.24731 54.0137 2.21227 53.9669 3.40278C53.9543 3.72404 53.7973 3.84838 53.4965 3.87046C52.792 3.9222 52.0926 3.83229 51.3908 3.809C51.189 3.8023 51.0989 3.67606 51.0125 3.50114C50.7218 2.91212 50.1075 2.65428 49.4494 2.81805C48.8096 2.97726 48.6065 3.25886 48.6056 4.01466C48.6043 5.20568 48.6037 6.39676 48.6139 7.58771C48.6194 8.21883 48.8519 8.47176 49.4716 8.54357C49.8406 8.58633 50.2258 8.63698 50.5753 8.50862C50.9182 8.38268 51.2928 8.19785 50.918 7.70143Z" fill="black"/>
<path d="M11.4545 11.463C11.4617 8.87414 11.4523 6.33689 11.475 3.79991C11.4795 3.2899 11.3194 3.09326 10.8051 3.12429C10.2606 3.15714 9.71246 3.12268 9.1662 3.13282C8.82349 3.13917 8.66217 2.99776 8.66965 2.64829C8.68427 1.96549 8.69203 1.28245 8.69279 0.59949C8.69314 0.283305 8.82738 0.140418 9.15083 0.141362C11.766 0.148994 14.3813 0.149294 16.9965 0.156361C17.086 0.156604 17.1753 0.204548 17.2925 0.238251C17.13 1.08305 17.131 1.91821 17.0787 2.74924C17.0592 3.05792 16.9085 3.14304 16.6259 3.13612C16.0798 3.12274 15.5329 3.13954 14.9867 3.12575C14.6111 3.11627 14.4694 3.27665 14.4708 3.65133C14.4802 6.14945 14.4734 8.64763 14.482 11.1458C14.4827 11.3716 14.5545 11.5972 14.6005 11.8649C13.6112 12.0394 12.6232 12.0735 11.6343 12.0401C11.2288 12.0264 11.4127 11.7264 11.4545 11.463Z" fill="black"/>
<path d="M26.7953 18.167C26.7971 17.5817 26.8061 17.0549 26.798 16.5283C26.7923 16.1563 26.9613 16.0373 27.3282 16.0055C28.0704 15.9412 28.6181 16.0982 29.0093 16.8269C29.3803 17.518 29.9093 18.1243 30.3688 18.7679C30.4208 18.7541 30.4728 18.7403 30.5248 18.7265C30.5248 18.0551 30.5529 17.3822 30.5159 16.7128C30.4861 16.1734 30.6829 15.9927 31.22 16.0086C32.1476 16.0362 32.1895 16.0252 32.197 16.6798C32.2147 18.2404 32.2085 19.8012 32.2266 21.3618C32.2314 21.7782 32.0782 21.9254 31.6486 21.9636C30.8724 22.0326 30.3199 21.8327 29.9107 21.1129C29.5532 20.4842 29.1157 19.8868 28.488 19.2435C28.488 20.0103 28.4561 20.6285 28.4972 21.2418C28.536 21.8199 28.2986 22.0276 27.7524 21.9535C27.7333 21.9509 27.7135 21.9533 27.6939 21.9534C26.8052 21.9568 26.8054 21.9568 26.8032 21.0933C26.8008 20.1374 26.7979 19.1815 26.7953 18.167Z" fill="black"/>
<path d="M36.8032 21.1848C36.3554 20.5686 35.9325 19.9871 35.4539 19.3292C35.2901 20.0008 35.3934 20.5961 35.3554 21.1815C35.3385 21.4415 35.4385 21.7922 35.0985 21.8877C34.6881 22.0031 34.2467 22.0184 33.8352 21.8653C33.6734 21.8051 33.6954 21.6003 33.6951 21.4463C33.691 19.7889 33.6936 18.1315 33.6848 16.4741C33.6831 16.1555 33.8085 16.0426 34.1293 16.0113C34.8614 15.9399 35.4148 16.0652 35.8044 16.8112C36.1674 17.506 36.7099 18.107 37.2623 18.8724C37.401 18.0351 37.3296 17.3602 37.3536 16.6909C37.3776 16.0228 37.3916 16.0331 38.3173 16.0097C38.8244 15.9969 39.0545 16.118 39.0403 16.6883C39.0019 18.2278 39.0108 19.7689 39.0245 21.3092C39.0287 21.782 38.8646 21.9507 38.3779 21.9644C37.7085 21.9832 37.1331 21.9118 36.8032 21.1848Z" fill="black"/>
<path d="M56.5226 18.5428C57.4834 18.8981 57.7926 19.2736 57.7922 20.0485C57.7917 20.8903 57.3456 21.5767 56.5571 21.8463C55.2975 22.277 54.1364 22.0807 53.1225 21.1937C52.8566 20.961 52.6577 20.6861 53.0228 20.3634C53.319 20.1016 53.5237 19.6022 54.0586 20.0758C54.5109 20.4763 55.0665 20.6734 55.6849 20.549C55.8914 20.5074 56.134 20.425 56.1538 20.1724C56.1762 19.8869 55.9069 19.8541 55.7093 19.7979C55.1105 19.6275 54.4958 19.5109 53.9204 19.2622C52.7886 18.7729 52.5561 17.3396 53.4764 16.5249C54.5856 15.543 56.7299 15.7796 57.6279 16.9954C57.5749 17.253 57.3212 17.3752 57.1913 17.5853C57.0066 17.8838 56.7816 17.8684 56.4965 17.707C56.0906 17.4774 55.6718 17.2511 55.1734 17.3445C54.9395 17.3883 54.6832 17.4361 54.6552 17.7276C54.629 18.0007 54.8704 18.0828 55.071 18.1434C55.5364 18.284 56.0093 18.3999 56.5226 18.5428Z" fill="black"/>
<path d="M63.2876 17.3811C63.3496 17.2097 63.3919 17.0797 63.4399 16.9519C63.8559 15.8457 63.6881 16.0592 64.7978 16.0086C65.2694 15.9871 65.4885 16.1576 65.6479 16.5965C66.2406 18.2284 66.8407 19.8586 67.5552 21.4429C67.6118 21.5683 67.6735 21.6914 67.5902 21.8798C67.124 22.011 66.6211 21.9385 66.1235 21.9291C65.949 21.9258 65.8218 21.8076 65.7923 21.6442C65.6967 21.1147 65.3183 21.1075 64.9055 21.1256C64.5742 21.1402 64.2416 21.1357 63.9098 21.1288C63.6649 21.1236 63.4761 21.2047 63.4322 21.4585C63.3584 21.8849 63.0811 21.9791 62.7073 21.9489C62.3629 21.921 62.0067 22.0223 61.6109 21.8349C62.0438 20.318 62.7325 18.8979 63.2876 17.3811ZM64.9673 19.0773C64.8617 18.7961 64.756 18.515 64.6036 18.1092C64.4166 18.7088 64.2706 19.1767 64.1165 19.671C64.5035 19.7988 64.824 19.8065 65.178 19.6846C65.1067 19.4825 65.0499 19.3212 64.9673 19.0773Z" fill="black"/>
<path d="M17.7328 18.2873C17.4356 17.5269 17.1539 16.8092 16.8618 16.0651C17.3997 15.9076 17.8661 15.9922 18.3269 15.9837C18.6144 15.9784 18.6606 16.2179 18.7316 16.4114C19.0465 17.2703 19.3508 18.133 19.6611 18.9936C19.7244 19.1692 19.7283 19.3754 19.9663 19.5459C20.2506 18.7176 20.5212 17.915 20.8015 17.1158C21.2368 15.8746 21.4801 15.7496 22.8257 16.0555C22.9255 16.2601 22.8068 16.4349 22.7404 16.6115C22.1504 18.1784 21.54 19.7379 20.9722 21.3128C20.803 21.7821 20.5404 21.9475 20.0603 21.9142C19.5795 21.8808 19.1048 21.9857 18.8897 21.3321C18.5553 20.3162 18.1331 19.3292 17.7328 18.2873Z" fill="black"/>
<path d="M41.9787 16.5891C42.2443 17.0234 42.4892 17.4184 42.7513 17.841C43.1805 17.6032 43.3405 17.2029 43.4743 16.8484C43.7413 16.1415 44.205 15.9004 44.9176 16.0149C45.1806 16.0572 45.4604 15.9593 45.7434 16.108C45.6509 16.5806 45.3268 16.9336 45.1159 17.34C44.9725 17.6165 44.8214 17.8954 44.6308 18.1399C43.9031 19.0735 43.5639 20.1093 43.7271 21.2957C43.7919 21.7659 43.5928 21.9957 43.1025 21.9546C42.9087 21.9383 42.7121 21.9444 42.5174 21.9532C42.1505 21.97 42.0303 21.7753 42.0641 21.4425C42.0759 21.3261 42.0999 21.2109 42.1106 21.0945C42.1872 20.2604 42.0923 19.4954 41.5553 18.7783C40.9405 17.9574 40.4349 17.0548 39.878 16.1815C40.7068 15.8096 41.5974 15.9821 41.9787 16.5891Z" fill="black"/>
<path d="M47.6514 17.4996C47.5192 17.4994 47.4411 17.4995 47.363 17.4992C46.4814 17.4953 46.261 17.1919 46.4678 16.3083C46.5199 16.0856 46.6478 16.0242 46.8389 16.024C48.3813 16.0219 49.9236 16.0155 51.4659 16.0254C52.0423 16.0291 51.873 16.4943 51.8869 16.8081C51.9011 17.1268 51.9569 17.5161 51.4291 17.5026C51.1169 17.4946 50.8036 17.5162 50.4922 17.4988C50.0907 17.4763 49.935 17.6412 49.9408 18.0478C49.9563 19.1408 49.9097 20.2357 49.9539 21.3271C49.9797 21.9623 49.629 21.9656 49.1831 21.952C48.753 21.9389 48.3085 22.034 48.3351 21.3346C48.3752 20.2819 48.3238 19.2258 48.3548 18.1725C48.3694 17.6772 48.2392 17.4189 47.6514 17.4996Z" fill="black"/>
<path d="M24.4897 21.951C24.1208 21.9631 23.9683 21.8181 23.9686 21.4987C23.97 19.8237 23.9702 18.1487 23.9634 16.4737C23.9621 16.1535 24.0989 16.0043 24.4175 16.0195C24.4563 16.0213 24.4954 16.0187 24.5343 16.0173C25.6388 15.9764 25.6344 15.9764 25.6375 17.0724C25.641 18.3188 25.6521 19.5653 25.6622 20.8118C25.6729 22.1281 25.7101 21.9401 24.4897 21.951Z" fill="black"/>
<path d="M58.988 20.2338C58.9906 18.9919 59.0083 17.8048 58.9844 16.6185C58.9756 16.1797 59.0775 15.9965 59.5609 16.0062C60.6019 16.0272 60.6027 16.0015 60.6033 17.0462C60.6041 18.3886 60.605 19.7311 60.6048 21.0735C60.6046 21.9582 60.6038 21.9583 59.6952 21.9528C59.5785 21.9521 59.4617 21.9458 59.3451 21.9482C59.0464 21.9542 58.9198 21.7934 58.9297 21.5127C58.9441 21.1046 58.9673 20.6969 58.988 20.2338Z" fill="black"/>
</svg>
