<svg width="30" height="30" viewBox="0 0 30 30" fill="none" xmlns="http://www.w3.org/2000/svg">
<path d="M21.5898 17.6484C21.8086 17.7578 21.9727 18.0039 21.9727 18.2773C21.9727 18.3047 21.9727 18.3594 21.9727 18.4141L21.3164 21.2578C21.2344 21.5586 20.9883 21.75 20.6875 21.75C13.6602 21.75 8 16.0898 8 9.0625C8 8.76172 8.19141 8.51562 8.49219 8.43359L11.3359 7.77734C11.3906 7.77734 11.4453 7.75 11.4727 7.75C11.7461 7.75 11.9922 7.91406 12.1016 8.16016L13.4141 11.2227C13.4414 11.3047 13.4688 11.3867 13.4688 11.4688C13.4688 11.6875 13.3594 11.8789 13.2227 11.9883L11.5547 13.3555C12.5664 15.4883 14.2617 17.1836 16.3945 18.1953L17.7617 16.5273C17.8711 16.3906 18.0625 16.2812 18.2539 16.2812C18.3633 16.2812 18.4453 16.3086 18.5273 16.3359L21.5898 17.6484Z" fill="#ffffff"/>
</svg>
