<svg width="32" height="32" viewBox="0 0 32 32" fill="none" xmlns="http://www.w3.org/2000/svg">
<g id="viber 1" clip-path="url(#clip0_31_453)">
<path id="Vector" d="M16 0C24.8365 0 32 7.16347 32 16C32 24.8365 24.8365 32 16 32C7.16347 32 0 24.8365 0 16C0 7.16347 7.16347 0 16 0Z" fill="#7360F2"/>
<path id="Vector_2" d="M16.4955 12.6328C16.5037 12.4758 16.6375 12.3552 16.7945 12.3634C17.3817 12.394 17.8702 12.5718 18.2181 12.9316C18.5647 13.2899 18.7347 13.7906 18.7645 14.3918C18.7723 14.5488 18.6513 14.6824 18.4944 14.6902C18.3374 14.698 18.2039 14.577 18.1961 14.42C18.1705 13.9054 18.0293 13.555 17.8091 13.3272C17.5901 13.1008 17.256 12.9574 16.7648 12.9318C16.6079 12.9236 16.4873 12.7897 16.4955 12.6328Z" fill="white"/>
<path id="Vector_3" d="M16.3687 10.8367C16.2119 10.8252 16.0756 10.943 16.0641 11.0997C16.0527 11.2564 16.1704 11.3928 16.3271 11.4043C17.4106 11.4836 18.2243 11.8462 18.8064 12.4816C19.3903 13.1196 19.6768 13.9148 19.6557 14.8892C19.6523 15.0464 19.7769 15.1765 19.9341 15.1799C20.0912 15.1833 20.2213 15.0587 20.2247 14.9016C20.2486 13.7966 19.9193 12.8546 19.2263 12.0974C18.5257 11.3326 17.5637 10.9242 16.3687 10.8367Z" fill="white"/>
<path id="Vector_4" d="M15.5618 9.64223C15.5629 9.48509 15.6912 9.35856 15.8483 9.35963C17.4997 9.37116 18.8956 9.92089 20.0164 11.0135C21.1464 12.1152 21.7054 13.615 21.7195 15.4778C21.7207 15.6349 21.5943 15.7633 21.4371 15.7645C21.28 15.7657 21.1516 15.6392 21.1504 15.4821C21.1371 13.7366 20.6178 12.3946 19.6191 11.421C18.611 10.4382 17.3592 9.93929 15.8444 9.92876C15.6872 9.92763 15.5607 9.79936 15.5618 9.64223ZM17.4514 17.9856C17.236 18.251 16.836 18.2172 16.836 18.2172C13.9124 17.4708 13.13 14.5094 13.13 14.5094C13.13 14.5094 13.0949 14.1094 13.3616 13.8941L13.8898 13.4742C14.1518 13.2723 14.3189 12.7825 14.0522 12.3042C13.8477 11.9451 13.6253 11.5966 13.3859 11.2598C13.1533 10.9421 12.6115 10.2916 12.6095 10.2896C12.3482 9.98143 11.9641 9.90983 11.559 10.1208C11.559 10.1208 11.5561 10.1214 11.5545 10.1219C11.553 10.1224 11.5506 10.1228 11.5506 10.1228C11.1477 10.355 10.7844 10.6499 10.4744 10.9964C10.4734 10.9986 10.4723 10.9996 10.4712 11.0006C10.4712 11.0006 10.4693 11.0024 10.4684 11.0042C10.2181 11.3062 10.0749 11.6023 10.0386 11.8924C10.0311 11.9351 10.0285 11.9786 10.0309 12.022C10.0295 12.15 10.049 12.2775 10.0886 12.3994L10.1024 12.4088C10.2287 12.8571 10.5446 13.6038 11.2312 14.8487C11.624 15.5688 12.0769 16.2543 12.5852 16.898C12.8398 17.2207 13.1128 17.5285 13.4028 17.8199C13.4062 17.8234 13.4097 17.8268 13.4131 17.8303C13.42 17.8373 13.4268 17.8442 13.4338 17.8509L13.527 17.9441C13.8184 18.234 14.1262 18.507 14.4488 18.7617C15.0926 19.27 15.7783 19.723 16.4985 20.1156C17.7431 20.8022 18.4904 21.1182 18.938 21.2444L18.9475 21.2582C19.0693 21.298 19.1968 21.3176 19.3249 21.3163C19.3682 21.3184 19.4117 21.3157 19.4545 21.3082C19.745 21.2738 20.0408 21.1308 20.342 20.8792C20.3456 20.8772 20.3456 20.8751 20.3497 20.8731C20.6963 20.563 20.9913 20.1998 21.2236 19.797L21.2242 19.7938C21.2248 19.7919 21.2254 19.7899 21.2254 19.7885C21.4363 19.3834 21.3648 18.9993 21.0549 18.7377C21.0549 18.7377 21.0292 18.7169 20.9864 18.6816C20.8108 18.5369 20.3402 18.1492 20.0847 17.9613C19.7482 17.722 19.4 17.4996 19.0413 17.295C18.5627 17.0283 18.0739 17.1954 17.8714 17.4574L17.4514 17.9856Z" fill="white"/>
<path id="Vector_5" fill-rule="evenodd" clip-rule="evenodd" d="M24.2586 7.52732C23.6996 7.01152 21.4406 5.37168 16.409 5.3494C16.409 5.3494 10.4754 4.99158 7.58285 7.64478C5.97269 9.25532 5.40627 11.6118 5.34652 14.5334C5.28677 17.4549 5.20947 22.9301 10.4872 24.4147H10.4922L10.4889 26.6801C10.4889 26.6801 10.4551 27.5972 11.059 27.7843C11.6686 27.9735 12.0681 27.5194 12.589 26.9271C12.6922 26.8097 12.8002 26.6869 12.9156 26.5626C13.2984 26.1501 13.827 25.5442 14.2253 25.0811C17.8348 25.3849 20.6109 24.6905 20.9262 24.5879C20.9912 24.5668 21.0834 24.5434 21.1976 24.5143C22.3638 24.2178 25.8388 23.3342 26.4496 18.3485C27.142 12.7055 26.1148 9.13612 24.2586 7.52732ZM24.8702 17.9437C24.3605 22.0597 21.598 22.7025 20.6026 22.9341C20.4926 22.9597 20.404 22.9803 20.3426 23C20.0803 23.0844 17.6421 23.691 14.576 23.4908C14.576 23.4908 12.2914 26.247 11.5778 26.9637C11.4664 27.0757 11.3355 27.1209 11.248 27.0987C11.1252 27.0686 11.0914 26.9231 11.0928 26.7105C11.0948 26.4067 11.1124 22.946 11.1124 22.946C6.79531 21.7475 6.89605 17.3507 6.95318 14.8553C6.95511 14.7701 6.95705 14.6869 6.95871 14.6063C7.00931 12.1661 7.46771 10.1671 8.82945 8.82252C11.276 6.60646 16.3162 6.93758 16.3162 6.93758C20.5724 6.95618 22.612 8.23792 23.0849 8.66725C24.6552 10.0118 25.4552 13.2291 24.8702 17.9424V17.9437Z" fill="white"/>
</g>
<defs>
<clipPath id="clip0_31_453">
<rect width="32" height="32" fill="white"/>
</clipPath>
</defs>
</svg>
