<?xml version="1.0" standalone="no"?>
<!DOCTYPE svg PUBLIC "-//W3C//DTD SVG 20010904//EN"
 "http://www.w3.org/TR/2001/REC-SVG-20010904/DTD/svg10.dtd">
<svg version="1.0" xmlns="http://www.w3.org/2000/svg"
 width="1120.000000pt" height="1120.000000pt" viewBox="0 0 1120.000000 1120.000000"
 preserveAspectRatio="xMidYMid meet">
<metadata>
Created by potrace 1.14, written by Peter Selinger 2001-2017
</metadata>
<g transform="translate(0.000000,1120.000000) scale(0.100000,-0.100000)"
fill="#000000" stroke="none">
<path d="M5446 10144 c-111 -20 -177 -40 -281 -87 -182 -80 -299 -177 -360
-298 -48 -94 -55 -148 -55 -431 0 -161 -4 -277 -11 -295 -8 -25 -21 -35 -62
-49 -36 -13 -58 -29 -74 -53 -22 -32 -23 -44 -23 -191 0 -218 15 -266 111
-360 l69 -68 2 -223 c1 -123 1 -242 0 -264 -4 -57 -37 -86 -135 -120 -338
-115 -633 -274 -867 -468 -121 -101 -165 -120 -303 -137 -278 -33 -506 -142
-711 -340 -119 -115 -196 -215 -258 -335 -84 -164 -115 -285 -127 -506 -11
-190 -20 -209 -159 -353 -119 -123 -183 -213 -242 -338 -53 -114 -83 -226
-124 -463 -19 -110 -59 -344 -90 -520 -66 -377 -104 -669 -113 -851 -6 -125
-5 -133 19 -185 56 -119 476 -538 873 -870 126 -105 420 -340 544 -435 191
-144 279 -240 450 -489 97 -140 123 -170 171 -195 53 -26 94 -29 500 -32 427
-2 386 -10 522 92 128 97 73 91 889 88 708 -3 715 -3 780 -26 71 -23 126 -59
202 -130 48 -44 49 -44 100 -37 29 3 221 10 427 13 l375 7 48 28 c53 31 105
94 266 316 139 193 216 272 402 412 268 201 641 521 952 816 194 183 398 402
418 449 18 40 18 48 -1 260 -28 317 -45 442 -107 789 -30 171 -67 384 -83 475
-69 388 -167 604 -376 820 -126 130 -135 151 -144 325 -12 201 -45 348 -115
501 -114 251 -357 494 -608 609 -110 50 -255 93 -359 106 -172 21 -190 26
-254 77 -113 91 -249 191 -339 247 -145 91 -376 200 -545 255 -110 37 -162 59
-177 76 -23 25 -23 30 -23 274 0 153 4 258 11 272 5 13 26 34 46 48 54 37 101
106 124 183 19 60 21 87 17 211 -5 168 -16 196 -92 237 -27 15 -52 33 -57 40
-5 8 -9 136 -9 284 0 291 -6 338 -54 433 -62 123 -162 213 -328 297 -219 110
-440 147 -652 109z m-66 -248 c0 -2 -29 -18 -65 -35 -84 -42 -155 -107 -260
-242 -47 -60 -85 -111 -85 -113 0 -2 41 -6 92 -10 50 -4 143 -14 207 -23 64
-9 177 -16 251 -16 115 -1 151 3 241 26 58 15 135 38 169 52 35 14 67 25 72
25 4 0 -17 -35 -46 -78 -70 -103 -98 -188 -105 -319 -5 -79 -10 -106 -24 -120
-18 -18 -28 -16 -133 24 -6 2 -19 -3 -28 -12 -14 -14 -16 -48 -16 -255 0 -298
4 -289 -121 -272 -92 13 -102 9 -116 -45 -9 -37 3 -52 67 -80 42 -18 66 -35
76 -54 13 -27 13 -29 -8 -43 -13 -8 -48 -18 -78 -22 -92 -11 -130 -40 -130
-98 0 -31 -2 -30 92 -10 82 18 285 23 312 7 16 -9 15 -11 -11 -21 -15 -6 -64
-13 -107 -16 -113 -8 -158 -46 -122 -101 15 -22 22 -23 137 -27 106 -3 122 -5
135 -22 21 -29 18 -99 -4 -120 -25 -22 -239 -66 -322 -66 -149 0 -266 62 -291
154 -7 25 -10 129 -8 276 2 129 0 240 -4 247 -13 22 -300 164 -310 154 -5 -5
-12 -24 -16 -41 -3 -18 -16 -39 -28 -47 -21 -14 -22 -13 -33 28 -13 47 -5 165
12 187 6 6 29 12 53 12 28 0 47 6 59 19 25 27 35 160 36 441 0 262 9 323 62
421 38 73 121 152 193 185 61 28 205 63 205 50z m-318 -2194 c80 -85 122 -177
208 -457 34 -110 77 -243 96 -296 19 -52 34 -99 34 -102 0 -4 -13 -7 -28 -7
-25 0 -56 31 -218 211 -104 115 -197 224 -207 242 -17 29 -18 50 -13 239 4
114 9 214 12 223 13 33 51 16 116 -53z m-326 -260 c28 -18 45 -151 22 -169
-21 -16 -620 -203 -651 -203 -22 0 80 93 166 151 86 57 416 229 440 229 7 0
17 -4 23 -8z m1892 -83 c145 -57 472 -247 444 -257 -49 -16 -421 162 -511 245
-57 52 -40 55 67 12z m-2662 -525 c47 -13 127 -45 176 -71 l90 -46 170 13
c345 26 589 -13 818 -131 160 -83 233 -182 253 -344 6 -46 7 -88 3 -92 -4 -5
-19 5 -32 22 -27 34 -35 29 -52 -30 -12 -45 -42 -211 -42 -236 0 -13 9 -15 49
-11 65 6 81 -16 81 -108 0 -123 -43 -222 -134 -308 -100 -94 -229 -139 -432
-149 -177 -9 -304 18 -319 68 -4 12 3 55 16 100 l23 79 -20 27 c-15 20 -54 40
-140 73 -158 62 -400 184 -414 210 -8 16 -8 25 0 35 18 22 155 99 275 156 155
73 237 121 222 131 -34 22 -299 1 -466 -38 -40 -9 -75 -14 -77 -11 -9 8 41 99
91 164 44 59 168 171 262 238 24 17 43 34 43 39 0 16 -163 -1 -230 -24 -233
-78 -536 -273 -710 -457 -79 -83 -150 -190 -150 -227 0 -20 36 -21 70 -1 14 8
32 14 41 15 20 0 41 -44 32 -67 -9 -24 -152 -201 -166 -206 -23 -8 -47 6 -53
30 -8 30 12 206 36 323 39 186 132 371 239 475 36 34 52 65 35 65 -12 0 -222
-125 -284 -169 -139 -99 -270 -242 -347 -380 -34 -59 -38 -75 -43 -163 -5 -86
-10 -105 -41 -165 -41 -79 -67 -91 -96 -47 -16 25 -18 52 -18 224 0 173 3 205
24 284 50 193 123 327 244 453 122 127 242 199 412 248 182 52 402 55 561 9z
m3786 7 c187 -49 330 -127 460 -250 134 -127 217 -265 218 -363 0 -21 -10 -66
-21 -99 -26 -73 -27 -154 -4 -199 9 -17 32 -52 51 -77 28 -37 34 -53 34 -94 0
-86 -51 -146 -86 -102 -35 43 -45 83 -39 156 6 68 4 76 -28 142 -64 131 -169
248 -322 359 -105 77 -317 213 -342 221 -39 11 -27 -18 31 -79 126 -131 211
-299 261 -518 18 -77 9 -114 -38 -157 -48 -44 -101 -22 -184 77 -112 132 -140
192 -112 244 9 17 17 19 56 13 l45 -7 -31 45 c-147 214 -642 483 -857 465
l-39 -3 75 -61 c103 -84 204 -193 261 -283 27 -42 49 -80 49 -85 0 -4 -12 -5
-27 -1 -57 14 -263 35 -403 42 -134 6 -144 5 -131 -10 7 -9 131 -75 275 -146
336 -166 365 -192 332 -305 -25 -86 -127 -186 -189 -186 -29 0 -58 32 -99 109
-25 46 -31 51 -61 51 -35 0 -151 -36 -203 -63 -66 -34 -111 -117 -101 -189 8
-60 -13 -105 -60 -125 -56 -24 -267 -29 -360 -10 -135 29 -212 78 -311 199
-98 119 -102 126 -102 182 0 51 25 116 48 124 5 1 35 -28 66 -66 54 -68 100
-112 117 -112 5 0 -6 19 -24 43 -51 67 -77 139 -111 306 -18 89 -36 156 -43
159 -7 2 -20 -13 -30 -32 -9 -20 -20 -36 -24 -36 -13 0 -22 89 -15 148 37 317
480 511 1055 462 164 -14 208 -7 315 47 70 36 149 62 231 79 99 19 316 12 417
-15z m-5128 -1533 c107 -163 129 -219 134 -334 3 -81 0 -101 -25 -176 -17 -47
-50 -116 -76 -154 -56 -85 -191 -222 -314 -321 -116 -92 -120 -114 -28 -143
96 -30 281 -146 406 -253 120 -103 299 -342 299 -400 0 -11 -14 -32 -30 -47
l-31 -29 75 -163 c41 -90 119 -253 173 -363 54 -110 111 -238 127 -285 16 -47
35 -95 43 -107 21 -36 66 -29 172 24 85 42 101 47 160 47 78 -1 139 -23 261
-97 117 -70 276 -178 330 -225 43 -38 44 -40 31 -66 -31 -58 -77 -42 -201 69
-35 30 -66 55 -71 55 -10 0 -37 -27 -49 -50 -10 -18 -11 -18 -56 1 l-45 20
-100 -21 c-55 -12 -111 -19 -125 -16 -24 6 -25 6 -10 -21 8 -15 39 -59 70 -98
77 -97 175 -273 204 -369 30 -97 47 -118 121 -147 92 -36 351 -171 345 -180
-10 -16 -42 -9 -126 27 -45 20 -161 69 -257 110 -95 40 -191 85 -213 101 -22
15 -61 56 -86 92 -138 196 -213 291 -229 291 -10 0 -31 -9 -47 -19 -16 -11
-36 -17 -45 -13 -9 3 -115 85 -236 181 -491 392 -667 566 -851 844 -69 104
-89 156 -66 171 5 3 91 -35 191 -84 190 -93 286 -132 384 -155 54 -12 57 -12
45 3 -7 9 -62 75 -123 147 -226 268 -344 437 -438 627 -103 208 -129 324 -108
477 22 155 74 275 209 482 45 69 82 134 82 145 0 10 -9 34 -20 52 l-20 33 -42
-25 c-24 -14 -64 -46 -91 -71 -53 -50 -55 -51 -82 -31 -18 13 -19 18 -6 77 21
102 60 219 99 294 38 73 165 215 192 215 8 0 51 -55 94 -122z m5236 82 c99
-41 349 -209 426 -286 108 -108 133 -193 134 -445 1 -396 -174 -525 -455 -338
-124 83 -209 192 -281 357 -64 149 -77 217 -78 412 -1 189 11 258 56 315 20
25 25 27 72 22 28 -3 85 -20 126 -37z m-4392 1 c49 -25 97 -77 117 -126 24
-56 24 -309 0 -420 -25 -120 -70 -226 -132 -312 -142 -201 -273 -283 -451
-283 -59 0 -66 2 -98 34 -40 40 -45 83 -13 135 11 18 19 34 17 36 -2 1 -22 12
-45 24 -60 30 -71 52 -79 156 -26 348 170 613 561 756 64 23 78 23 123 0z
m5173 -171 c120 -37 210 -135 244 -264 8 -33 13 -61 11 -64 -3 -2 -31 14 -63
35 -32 22 -75 50 -97 63 l-39 23 5 -64 c5 -82 38 -154 128 -279 78 -108 131
-213 157 -310 25 -94 23 -260 -6 -365 -65 -239 -290 -590 -582 -907 -49 -53
-89 -101 -89 -107 0 -35 145 16 387 138 90 44 170 81 180 81 22 0 53 -29 53
-50 0 -21 -133 -223 -198 -300 -77 -92 -221 -236 -347 -349 -218 -195 -606
-512 -623 -509 -9 2 -20 19 -25 38 -18 71 -49 59 -134 -53 -33 -45 -83 -118
-109 -162 -71 -118 -162 -204 -276 -259 -127 -61 -383 -140 -409 -126 -27 15
-24 25 14 53 69 52 139 89 253 132 64 25 128 55 141 67 13 12 33 56 48 105 35
113 121 278 200 386 36 48 65 89 65 91 0 2 -12 7 -27 11 -40 10 -53 24 -53 55
0 38 -24 55 -75 52 -83 -3 -318 -103 -392 -166 -46 -40 -77 -46 -93 -17 -23
44 -13 59 103 145 61 46 145 105 186 131 103 67 259 138 301 137 22 0 75 -19
139 -51 175 -86 215 -69 270 116 12 41 94 213 186 393 91 177 165 331 165 344
0 12 -11 37 -24 55 -28 37 -27 39 25 143 115 230 332 426 601 544 35 15 75 36
91 47 l27 19 -31 39 c-17 22 -78 78 -135 125 -185 152 -275 276 -315 434 -25
98 -22 207 7 280 22 55 73 140 84 140 4 0 36 -9 71 -20z m-3217 -290 c82 -41
105 -94 71 -160 -13 -25 -13 -33 0 -70 28 -80 16 -119 -49 -159 -27 -17 -50
-21 -117 -21 -82 0 -169 -16 -257 -45 -116 -40 -231 8 -301 125 -25 42 -26 68
-4 115 16 34 16 35 -6 59 l-23 25 38 6 c95 15 210 48 344 100 167 64 217 68
304 25z m668 -26 c141 -55 316 -104 371 -104 15 0 27 -4 27 -9 0 -5 -45 -35
-100 -67 -55 -33 -100 -62 -100 -66 0 -8 3 -9 83 -13 26 -1 50 -5 53 -8 10
-10 -45 -85 -82 -114 -43 -32 -91 -35 -254 -16 -62 8 -112 8 -145 2 -131 -24
-148 -23 -182 5 -41 35 -57 83 -48 148 6 41 3 59 -15 99 -20 42 -21 52 -10 79
14 34 70 82 122 105 65 28 125 19 280 -41z m-1924 -263 c26 -26 55 -62 65 -80
17 -28 17 -32 2 -37 -11 -4 -29 5 -52 27 -35 33 -93 115 -93 131 0 22 36 3 78
-41z m3572 -493 c41 -46 114 -121 163 -169 67 -66 87 -92 87 -113 0 -15 -25
-94 -56 -174 -31 -81 -94 -253 -141 -382 -47 -129 -89 -238 -92 -243 -4 -4
-16 -1 -27 7 -18 13 -19 32 -24 293 -4 232 -8 284 -22 316 -10 21 -60 79 -113
130 -102 99 -111 118 -77 168 37 55 205 249 215 249 6 0 45 -37 87 -82z
m-4148 60 c17 -14 163 -196 193 -241 23 -36 10 -69 -48 -119 -193 -168 -181
-136 -187 -505 -5 -278 -6 -291 -23 -278 -10 7 -49 102 -93 226 -41 118 -106
292 -144 388 -39 96 -70 187 -70 202 0 19 9 34 26 46 85 60 133 104 211 193
86 99 105 111 135 88z m3146 -118 c18 -11 76 -66 130 -122 53 -57 171 -179
261 -272 97 -101 171 -186 182 -210 17 -37 19 -71 19 -354 l0 -313 -24 -24
c-34 -34 -94 -49 -122 -30 -22 14 -22 18 -26 299 -3 258 -5 287 -21 303 -17
17 -94 18 -1523 21 l-1505 2 -25 -25 -25 -25 7 -268 c8 -307 7 -312 -57 -312
-51 0 -92 21 -108 57 -32 69 -41 627 -11 669 8 12 134 148 280 303 175 186
279 288 305 301 39 20 63 20 1135 20 1077 0 1096 0 1128 -20z m-126 -1088 l23
-23 3 -568 c3 -613 1 -633 -48 -658 -20 -10 -233 -13 -993 -13 l-968 0 -24 25
-25 24 0 585 c0 418 3 592 11 610 7 14 24 30 38 35 16 6 389 9 993 8 l967 -2
23 -23z"/>
<path d="M5482 9048 c-32 -20 -38 -20 -117 -8 -47 7 -112 10 -148 7 -113 -11
-257 -82 -257 -127 0 -11 19 -29 53 -48 28 -16 89 -64 135 -106 76 -70 85 -76
125 -76 23 0 60 9 82 19 52 23 212 157 221 183 8 27 -5 150 -18 166 -14 17
-37 14 -76 -10z"/>
<path d="M3442 2347 c-12 -13 -22 -27 -22 -31 0 -16 62 4 92 29 l30 25 -39 0
c-28 0 -46 -7 -61 -23z"/>
<path d="M4644 3965 c-23 -7 -61 -26 -86 -43 -63 -43 -338 -338 -338 -362 0
-20 15 -20 1390 -20 790 0 1390 4 1390 9 0 5 -39 51 -87 103 -49 52 -115 125
-148 163 -83 96 -102 112 -163 135 -51 19 -79 20 -985 24 -713 3 -942 1 -973
-9z"/>
<path d="M4910 2820 c-19 -19 -20 -33 -20 -435 0 -404 1 -416 20 -435 21 -21
28 -21 726 -18 l706 3 19 24 c18 22 19 45 19 436 0 363 -2 416 -16 429 -14 14
-93 16 -725 16 -696 0 -709 0 -729 -20z m335 -214 c29 -31 175 -377 175 -414
0 -38 -19 -53 -73 -59 -68 -8 -86 15 -183 231 -46 104 -84 201 -84 216 0 21 7
30 28 38 65 25 106 22 137 -12z m455 4 c19 -19 20 -33 20 -207 0 -104 -5 -205
-11 -225 l-10 -38 -59 0 c-49 0 -61 3 -70 20 -7 14 -10 93 -8 231 3 195 4 212
22 225 29 21 92 18 116 -6z m478 -12 c2 -15 -6 -49 -18 -75 -12 -26 -51 -118
-86 -203 -36 -85 -74 -163 -86 -173 -33 -28 -125 -20 -150 13 l-18 25 86 200
c47 110 95 210 107 223 19 20 29 22 92 20 68 -3 70 -4 73 -30z"/>
<path d="M3962 8575 c-39 -14 -161 -70 -270 -124 -647 -324 -1097 -659 -1564
-1165 -221 -240 -430 -517 -443 -589 -20 -105 115 -184 208 -122 14 9 65 71
113 138 299 416 665 777 1112 1096 254 181 524 336 856 491 140 65 185 100
187 143 4 73 -24 129 -73 146 -41 14 -42 14 -126 -14z"/>
<path d="M7102 8586 c-38 -21 -62 -66 -62 -118 0 -77 22 -94 294 -228 492
-242 887 -511 1261 -857 210 -195 460 -478 610 -692 96 -137 138 -161 223
-126 92 39 107 100 49 197 -97 160 -327 437 -547 659 -446 448 -924 795 -1435
1040 -180 86 -313 139 -347 139 -13 -1 -33 -6 -46 -14z"/>
<path d="M1535 6426 c-27 -29 -70 -86 -94 -127 -299 -503 -497 -1053 -591
-1644 -35 -224 -51 -381 -41 -408 15 -40 55 -60 120 -61 104 -1 138 42 152
193 19 222 69 473 150 756 125 441 258 742 471 1072 69 107 80 151 49 201 -28
43 -77 72 -126 72 -35 0 -45 -6 -90 -54z"/>
<path d="M9489 6457 c-45 -30 -66 -85 -51 -135 7 -20 48 -98 93 -172 310 -518
532 -1194 589 -1796 5 -55 12 -108 16 -117 23 -61 191 -61 231 -1 14 21 15 43
10 147 -32 608 -324 1464 -682 2000 -63 95 -136 122 -206 74z"/>
<path d="M10232 3909 c-68 -34 -76 -58 -67 -216 7 -131 8 -133 36 -157 37 -31
124 -44 165 -25 58 29 69 59 69 187 -1 101 -4 123 -23 159 -38 72 -102 91
-180 52z"/>
<path d="M793 3905 c-25 -10 -35 -23 -44 -57 -16 -58 -17 -203 -1 -256 11 -36
20 -47 55 -63 24 -10 65 -19 95 -19 47 0 58 4 82 30 34 37 40 65 40 205 0 93
-3 117 -18 135 -30 37 -149 51 -209 25z"/>
<path d="M1010 1810 c-536 -3 -976 -6 -977 -8 -1 -1 -10 -16 -19 -34 -23 -45
-14 -163 16 -192 20 -21 24 -21 1079 -24 1018 -2 1059 -2 1081 16 38 31 47
171 15 216 -18 24 -75 36 -155 33 -36 -1 -504 -4 -1040 -7z"/>
<path d="M9017 1798 c-41 -32 -53 -176 -18 -219 l19 -24 995 -3 995 -2 29 24
c26 23 28 29 28 104 0 71 -3 83 -24 106 l-24 26 -992 0 c-777 0 -995 -3 -1008
-12z"/>
</g>
</svg>
